<svg id="Capa_1" data-name="Capa 1" xmlns="http://www.w3.org/2000/svg" viewBox="0 0 406.42 270.57"><defs><style>.cls-1{fill:#24406c;}.cls-2{fill:#9d9d9c;}.cls-3{fill:#dea95a;}.cls-4{fill:#d7bb72;}</style></defs><title>Logo Vector editable</title><path class="cls-1" d="M159.53,218.22l34.52,88.53c2.22,5.61,5.32,6.79,13.14,7.24v4.42c-7.53-.59-15.2-.74-22.73-.74-10.18,0-15.64.3-22.13.74V314c8.56-.15,11.95-1.48,11.95-4,0-1.77-.88-3.84-1.62-5.9l-8.27-22.28H140.64c-3.55,0-5.32,1.33-6.64,4.72L127.21,305c-.74,2.07-1.33,3.4-1.33,5,0,2.95,1.77,4,11.8,4v4.42c-5.45-.29-10.77-.74-16.23-.74-4.42,0-8.85.74-13.28.74V314c5.61-.74,10.33-1.78,11.81-5.32l35.86-90.45Zm-9,25.52h-.29l-11.07,29.37a8.25,8.25,0,0,0-.74,2.51c0,.88.59,1.77,2.51,1.77h21.69Z" transform="translate(-107.93 -81.83)"/><path class="cls-1" d="M244.82,317.67H209.25v-3.83h10.92c.3-12.84.74-25.53.74-38.37V246.4c0-19.33-2.07-20.36-4.43-20.51l-7.23-.59v-4.43c19.48-.44,24.35-2.65,26.12-2.65a1.57,1.57,0,0,1,1.48,1.77c0,10.92-1.18,15.64-1.18,29.21v64.64h9.15Z" transform="translate(-107.93 -81.83)"/><path class="cls-1" d="M290.41,267.21c0-5.61-2.65-10.33-12.39-10.33-1.77,0-11.37,1-11.37,4,0,1.77,2.37,3.69,2.37,9.15,0,4.58-3,8-7.68,8-3.83,0-6.2-3.39-6.2-6.94,0-12.83,15.79-18,26.27-18,14.61,0,23.76,7.09,23.76,22.28,0,8.71-.89,27.15-.89,32.61,0,1.19.89,2.07,3.25,2.07,1.48,0,5.31-1.47,8.26-1.47.74,0,1,.29,1,1,0,2.07-5,10.48-14,10.48-7.09,0-12.25-4.87-12.55-12-6,6.35-12.1,12-21.39,12-10.33,0-17.27-5-17.27-15.79,0-10.48,12.84-15.94,24.2-18.6L287,283c2.65-.59,3.39-1,3.39-4Zm0,19.48c0-.89-.44-1-1.18-1-4.72,0-22.87,3.84-22.87,17.86,0,5,4.13,9.89,9.3,9.89,9.44,0,14.75-8.42,14.75-18Z" transform="translate(-107.93 -81.83)"/><path class="cls-1" d="M319.78,313.84h7.52c2.22,0,3.1-1.18,3.1-2.51v-30.1c0-17.12-1.18-18.89-2.36-19l-7.38-.59v-4.43c12.55-.44,18.3-1.77,20.07-1.77s3.1.89,3.54,5.17l1,9.29h.29c3.84-7.52,11.51-16.82,19.77-16.82,5.91,0,9,3.25,9.89,5.46-1.77,4.43-2.21,11.22-7.38,11.22-5,0-6.79-7.53-11.51-7.53-6.05,0-11.21,9.59-11.21,20.51v28.63c0,1.33.88,2.51,3.1,2.51h7.67v3.83H319.78Z" transform="translate(-107.93 -81.83)"/><path class="cls-1" d="M438.12,301.3c-5.6,11.8-14.61,18.74-27.89,18.74-19.92,0-32.9-13.88-32.9-33.8,0-19,15.2-33.2,33.79-33.2,11.36,0,27.3,7.67,27.3,21.25,0,4.72-2.51,6.79-6.94,6.79-6.05,0-8.41-6.79-8.41-12.1,0-4.28,1.18-6.94,1.18-9.15,0-1.77-8-3.54-10.18-3.54-12.54,0-20.22,11.95-20.22,28.77,0,14.17,5.46,28.33,21.7,28.33,8.55,0,16.38-6,20.06-13.57Z" transform="translate(-107.93 -81.83)"/><path class="cls-1" d="M446.24,286.54c0-19.77,14.46-33.5,33.94-33.5s33.94,13.73,33.94,33.5S499.66,320,480.18,320s-33.94-13.73-33.94-33.5m51.35,0c0-13.72-4.28-30.25-17.41-30.25s-17.41,16.53-17.41,30.25,4.42,30.25,17.41,30.25,17.41-16.38,17.41-30.25" transform="translate(-107.93 -81.83)"/><path class="cls-2" d="M121.86,351.89c-.56-.56-1.1-1.13-1.88-2a8.22,8.22,0,0,1-5.87,2.29c-3.91,0-6.18-2.62-6.18-5.63,0-2.75,1.65-4.63,3.94-5.88v-.09a6.91,6.91,0,0,1-1.67-4.2,4.87,4.87,0,0,1,5.1-4.95,4.18,4.18,0,0,1,4.44,4.26c0,2.12-1.22,3.79-4.41,5.37v.09c1.7,2,3.61,4.17,4.89,5.61a14.73,14.73,0,0,0,1.94-5.88h2.39c-.54,3.16-1.41,5.67-2.9,7.43,1.08,1.13,2.12,2.26,3.31,3.54Zm-3.16-3.45c-1.19-1.32-3.43-3.76-5.66-6.33a4.94,4.94,0,0,0-2.6,4.09,4,4,0,0,0,4.12,4.05,5.6,5.6,0,0,0,4.14-1.81m-6.11-12.26a5.63,5.63,0,0,0,1.52,3.61c2-1.17,3.34-2.24,3.34-3.94a2.37,2.37,0,0,0-2.33-2.59c-1.67,0-2.53,1.37-2.53,2.92" transform="translate(-107.93 -81.83)"/><path class="cls-2" d="M131.41,351.89l9.66-21.26h4.71l9.52,21.26h-4.39l-2.23-4.71H137.91l-2.24,4.71Zm12.08-17.26-3.58,8.23H147l-3.46-8.23Z" transform="translate(-107.93 -81.83)"/><path class="cls-2" d="M160.69,344.83a3.91,3.91,0,0,0,.39,1.82,3.34,3.34,0,0,0,1,1.2,4.53,4.53,0,0,0,1.49.69,7.07,7.07,0,0,0,1.81.22,9.31,9.31,0,0,0,1.34-.1,4.63,4.63,0,0,0,1.34-.4,2.92,2.92,0,0,0,1-.82,2.06,2.06,0,0,0,.42-1.33,1.85,1.85,0,0,0-.55-1.4,4.56,4.56,0,0,0-1.45-.91,12,12,0,0,0-2-.63c-.76-.17-1.52-.36-2.3-.58a20.33,20.33,0,0,1-2.33-.73,7.9,7.9,0,0,1-2-1.12,5.3,5.3,0,0,1-1.45-1.7,5.14,5.14,0,0,1-.55-2.5,5.53,5.53,0,0,1,.7-2.85,6.44,6.44,0,0,1,1.83-2,8.18,8.18,0,0,1,2.57-1.19,10.83,10.83,0,0,1,2.86-.39,13.56,13.56,0,0,1,3.21.38,8,8,0,0,1,2.73,1.2,6.19,6.19,0,0,1,1.89,2.14,6.48,6.48,0,0,1,.7,3.14h-4.53a3.78,3.78,0,0,0-.41-1.58,2.53,2.53,0,0,0-.91-1,3.74,3.74,0,0,0-1.31-.51,7.92,7.92,0,0,0-1.58-.15,5.43,5.43,0,0,0-1.13.12,3,3,0,0,0-1,.42,2.5,2.5,0,0,0-.76.76,2,2,0,0,0-.3,1.12,1.89,1.89,0,0,0,.24,1,2,2,0,0,0,.94.7,14.21,14.21,0,0,0,1.94.66c.82.23,1.9.51,3.23.85l1,.25a10.32,10.32,0,0,1,1.32.45,8.62,8.62,0,0,1,1.41.73,6.61,6.61,0,0,1,1.28,1.1,5.2,5.2,0,0,1,.94,1.57,5.71,5.71,0,0,1,.36,2.1,6.5,6.5,0,0,1-.57,2.72,6,6,0,0,1-1.69,2.16,8.23,8.23,0,0,1-2.77,1.43,12.67,12.67,0,0,1-3.83.52,13,13,0,0,1-3.42-.45,8.36,8.36,0,0,1-2.9-1.37,6.67,6.67,0,0,1-2.75-5.75Z" transform="translate(-107.93 -81.83)"/><path class="cls-2" d="M197.38,341.16a10.46,10.46,0,0,1-.88,4.29,11.34,11.34,0,0,1-2.37,3.49,11.07,11.07,0,0,1-3.51,2.36,11.11,11.11,0,0,1-8.57,0,11.09,11.09,0,0,1-3.49-2.36,11,11,0,0,1-2.36-3.49,10.78,10.78,0,0,1-.86-4.29,10.91,10.91,0,0,1,.86-4.31,11.18,11.18,0,0,1,2.36-3.51,11.06,11.06,0,0,1,3.49-2.35,11,11,0,0,1,8.57,0,11,11,0,0,1,3.51,2.35,11.56,11.56,0,0,1,2.37,3.51,10.58,10.58,0,0,1,.88,4.31m-11-6.53a6.15,6.15,0,0,0-2.52.52,6.71,6.71,0,0,0-2.06,1.42,6.94,6.94,0,0,0-1.4,2.07,6.24,6.24,0,0,0-.52,2.52,6.31,6.31,0,0,0,.52,2.52,6.65,6.65,0,0,0,3.46,3.46,6.15,6.15,0,0,0,2.52.52,6,6,0,0,0,2.51-.52,6.92,6.92,0,0,0,2-1.4,6.62,6.62,0,0,0,1.39-2.06,6.31,6.31,0,0,0,.51-2.52,6.24,6.24,0,0,0-.51-2.52,6.55,6.55,0,0,0-1.39-2.07,6.62,6.62,0,0,0-2-1.42,6,6,0,0,0-2.51-.52" transform="translate(-107.93 -81.83)"/><path class="cls-2" d="M219.27,346.2a11.33,11.33,0,0,1-1.67,2.34,10.72,10.72,0,0,1-2.21,1.82,10.38,10.38,0,0,1-2.67,1.18,11,11,0,0,1-7.2-.43,10.86,10.86,0,0,1-5.74-5.75,10.75,10.75,0,0,1,0-8.38,11.19,11.19,0,0,1,2.31-3.44,10.86,10.86,0,0,1,3.43-2.33,10.63,10.63,0,0,1,4.21-.85,10.54,10.54,0,0,1,5.53,1.54,11.11,11.11,0,0,1,2.18,1.74,11.36,11.36,0,0,1,1.65,2.24l-1.1.58-.81.42-.86.43-1.22.6a6,6,0,0,0-2.21-2.22,6.06,6.06,0,0,0-3.16-.85,6,6,0,0,0-2.46.5,6.71,6.71,0,0,0-2,1.36,6.3,6.3,0,0,0-1.35,6.92,6.29,6.29,0,0,0,1.35,2,6.36,6.36,0,0,0,2,1.36,6.31,6.31,0,0,0,8-2.82l1.21.63.85.44.81.42,1.13.54" transform="translate(-107.93 -81.83)"/><rect class="cls-2" x="114.23" y="248.77" width="4.68" height="21.29"/><path class="cls-2" d="M228.93,351.89l9.67-21.26h4.71l9.51,21.26h-4.38l-2.24-4.71H235.43l-2.23,4.71ZM241,334.63l-3.58,8.23h7.07L241,334.63Z" transform="translate(-107.93 -81.83)"/><path class="cls-2" d="M255,330.6h9.19a10.93,10.93,0,0,1,3.83.66,8.24,8.24,0,0,1,3.07,2,9.12,9.12,0,0,1,2,3.28,13.28,13.28,0,0,1,.73,4.63,14.63,14.63,0,0,1-.6,4.29,9.54,9.54,0,0,1-1.8,3.4,8.37,8.37,0,0,1-3,2.25,10.17,10.17,0,0,1-4.25.82H255ZM259.71,348h4.18a6,6,0,0,0,2-.33,4.38,4.38,0,0,0,1.7-1.09,5.65,5.65,0,0,0,1.19-2,8.72,8.72,0,0,0,.45-3,12.26,12.26,0,0,0-.32-2.9,5.69,5.69,0,0,0-1-2.22A4.47,4.47,0,0,0,266,335a7.5,7.5,0,0,0-2.91-.49h-3.34Z" transform="translate(-107.93 -81.83)"/><path class="cls-2" d="M297.65,341.16a10.46,10.46,0,0,1-.88,4.29,11.34,11.34,0,0,1-2.37,3.49,11.07,11.07,0,0,1-3.51,2.36,11.11,11.11,0,0,1-8.57,0,11.09,11.09,0,0,1-3.49-2.36,11,11,0,0,1-2.36-3.49,10.78,10.78,0,0,1-.86-4.29,10.91,10.91,0,0,1,.86-4.31,11.18,11.18,0,0,1,2.36-3.51,11.06,11.06,0,0,1,3.49-2.35,11,11,0,0,1,8.57,0,11,11,0,0,1,3.51,2.35,11.56,11.56,0,0,1,2.37,3.51,10.58,10.58,0,0,1,.88,4.31m-11-6.53a6.15,6.15,0,0,0-2.52.52,6.71,6.71,0,0,0-2.06,1.42,6.94,6.94,0,0,0-1.4,2.07,6.24,6.24,0,0,0-.52,2.52,6.31,6.31,0,0,0,.52,2.52,6.65,6.65,0,0,0,3.46,3.46,6.15,6.15,0,0,0,2.52.52,6,6,0,0,0,2.51-.52,6.92,6.92,0,0,0,2-1.4,6.62,6.62,0,0,0,1.39-2.06,6.31,6.31,0,0,0,.51-2.52,6.24,6.24,0,0,0-.51-2.52,6.55,6.55,0,0,0-1.39-2.07,6.62,6.62,0,0,0-2-1.42,6,6,0,0,0-2.51-.52" transform="translate(-107.93 -81.83)"/><path class="cls-2" d="M303.52,344.83a3.91,3.91,0,0,0,.39,1.82,3.34,3.34,0,0,0,1,1.2,4.53,4.53,0,0,0,1.49.69,7.07,7.07,0,0,0,1.81.22,9.31,9.31,0,0,0,1.34-.1,4.63,4.63,0,0,0,1.34-.4,2.92,2.92,0,0,0,1-.82,2.06,2.06,0,0,0,.42-1.33,1.85,1.85,0,0,0-.55-1.4,4.56,4.56,0,0,0-1.45-.91,12,12,0,0,0-2-.63c-.76-.17-1.52-.36-2.3-.58a20.33,20.33,0,0,1-2.33-.73,7.9,7.9,0,0,1-2-1.12,5.3,5.3,0,0,1-1.45-1.7,5.14,5.14,0,0,1-.55-2.5,5.53,5.53,0,0,1,.7-2.85,6.44,6.44,0,0,1,1.83-2,8.18,8.18,0,0,1,2.57-1.19,10.83,10.83,0,0,1,2.86-.39,13.56,13.56,0,0,1,3.21.38,8,8,0,0,1,2.73,1.2,6.19,6.19,0,0,1,1.89,2.14,6.48,6.48,0,0,1,.7,3.14h-4.53a3.78,3.78,0,0,0-.41-1.58,2.53,2.53,0,0,0-.91-1,3.74,3.74,0,0,0-1.31-.51,7.92,7.92,0,0,0-1.58-.15,5.43,5.43,0,0,0-1.13.12,3,3,0,0,0-1,.42,2.5,2.5,0,0,0-.76.76,2,2,0,0,0-.3,1.12,1.89,1.89,0,0,0,.24,1,2,2,0,0,0,.94.7,14.21,14.21,0,0,0,1.94.66c.82.23,1.9.51,3.23.85l1,.25a10.32,10.32,0,0,1,1.32.45,8.62,8.62,0,0,1,1.41.73,6.61,6.61,0,0,1,1.28,1.1,5.2,5.2,0,0,1,.94,1.57,5.71,5.71,0,0,1,.36,2.1,6.5,6.5,0,0,1-.57,2.72,6,6,0,0,1-1.69,2.16,8.23,8.23,0,0,1-2.77,1.43,12.67,12.67,0,0,1-3.83.52,13,13,0,0,1-3.42-.45,8.36,8.36,0,0,1-2.9-1.37,6.67,6.67,0,0,1-2.75-5.75Z" transform="translate(-107.93 -81.83)"/><path class="cls-2" d="M326.7,351.89l9.66-21.26h4.71l9.52,21.26H346.2L344,347.18H333.2L331,351.89Zm12.08-17.26-3.58,8.23h7.07l-3.46-8.23Z" transform="translate(-107.93 -81.83)"/><path class="cls-2" d="M354.05,330.6h10a13.14,13.14,0,0,1,2.77.27,6,6,0,0,1,2.15.88,4.13,4.13,0,0,1,1.39,1.62,5.88,5.88,0,0,1,.49,2.51,4.61,4.61,0,0,1-.75,2.67,5.34,5.34,0,0,1-2.14,1.77,5.08,5.08,0,0,1,2.93,2,5.85,5.85,0,0,1,1,3.41,6,6,0,0,1-.62,2.79,5.32,5.32,0,0,1-1.69,1.92,7.45,7.45,0,0,1-2.42,1.11,10.76,10.76,0,0,1-2.78.36H354.05Zm4.68,8.62h4.74a3.36,3.36,0,0,0,2.06-.6,2.23,2.23,0,0,0,.8-1.94,2.48,2.48,0,0,0-.26-1.22,2,2,0,0,0-.72-.74,3,3,0,0,0-1-.38,6.81,6.81,0,0,0-1.21-.1h-4.38Zm0,9h5a6.19,6.19,0,0,0,1.31-.14,3.44,3.44,0,0,0,1.11-.44,2.35,2.35,0,0,0,.76-.86,3,3,0,0,0,.28-1.37,2.77,2.77,0,0,0-.92-2.34,4,4,0,0,0-2.45-.7h-5.1Z" transform="translate(-107.93 -81.83)"/><path class="cls-2" d="M396.82,341.16a10.62,10.62,0,0,1-.88,4.29,11.2,11.2,0,0,1-2.38,3.49,11,11,0,0,1-3.5,2.36,11.11,11.11,0,0,1-8.57,0,11.11,11.11,0,0,1-5.85-5.85,10.61,10.61,0,0,1-.87-4.29,10.74,10.74,0,0,1,.87-4.31,11.18,11.18,0,0,1,2.36-3.51,11,11,0,0,1,3.49-2.35,11,11,0,0,1,8.57,0,11,11,0,0,1,3.5,2.35,11.41,11.41,0,0,1,2.38,3.51,10.75,10.75,0,0,1,.88,4.31m-11-6.53a6.15,6.15,0,0,0-2.52.52,6.59,6.59,0,0,0-2.06,1.42,6.94,6.94,0,0,0-1.4,2.07,6.08,6.08,0,0,0-.52,2.52,6.15,6.15,0,0,0,.52,2.52,7,7,0,0,0,1.4,2.06,6.89,6.89,0,0,0,2.06,1.4,6.15,6.15,0,0,0,2.52.52,6,6,0,0,0,2.51-.52,7.05,7.05,0,0,0,2-1.4,6.8,6.8,0,0,0,1.39-2.06,6.48,6.48,0,0,0,.5-2.52,6.4,6.4,0,0,0-.5-2.52,6.74,6.74,0,0,0-3.43-3.49,6,6,0,0,0-2.51-.52" transform="translate(-107.93 -81.83)"/><path class="cls-2" d="M420.91,341.25a9.06,9.06,0,0,1-.09,1c-.05.46-.13,1-.23,1.5a15.83,15.83,0,0,1-.38,1.58,4,4,0,0,1-.52,1.2,10.76,10.76,0,0,1-1.7,2.34,10.59,10.59,0,0,1-2.26,1.8,11.61,11.61,0,0,1-2.7,1.17,11.14,11.14,0,0,1-3,.41,10.79,10.79,0,0,1-4.27-.86,11.28,11.28,0,0,1-3.5-2.37,11,11,0,0,1-2.37-3.51,11,11,0,0,1,0-8.56,11.18,11.18,0,0,1,5.87-5.87,10.86,10.86,0,0,1,7.25-.45,11.58,11.58,0,0,1,2.67,1.15,11.12,11.12,0,0,1,4,4c-.48.24-.86.44-1.15.6s-.56.3-.83.43l-.88.43-1.25.63a6.5,6.5,0,0,0-2.3-2.27,6.16,6.16,0,0,0-3.22-.86,6.23,6.23,0,0,0-2.52.5,6.41,6.41,0,0,0-3.42,3.42,6.4,6.4,0,0,0-.5,2.52,6.48,6.48,0,0,0,.5,2.52,6.77,6.77,0,0,0,1.38,2.06,6.16,6.16,0,0,0,2,1.37,6.59,6.59,0,0,0,5.8-.4,6.93,6.93,0,0,0,2.36-2.33c-.56,0-1.05,0-1.47,0l-1.35,0h-1.36l-1,0q-.42,0-.42,0v-3.22h8.07l2.81,0" transform="translate(-107.93 -81.83)"/><path class="cls-2" d="M422.61,351.89l9.67-21.26H437l9.51,21.26h-4.38l-2.24-4.71H429.12l-2.24,4.71Zm12.08-17.26-3.58,8.23h7.07l-3.46-8.23Z" transform="translate(-107.93 -81.83)"/><path class="cls-2" d="M450,330.6h9.19a10.89,10.89,0,0,1,3.83.66,8.24,8.24,0,0,1,3.07,2,9.12,9.12,0,0,1,2,3.28,13.28,13.28,0,0,1,.73,4.63,15,15,0,0,1-.59,4.29,9.41,9.41,0,0,1-1.81,3.4,8.28,8.28,0,0,1-3,2.25,10.13,10.13,0,0,1-4.25.82H450ZM454.65,348h4.17a6,6,0,0,0,2-.33,4.31,4.31,0,0,0,1.7-1.09,5.5,5.5,0,0,0,1.19-2,8.72,8.72,0,0,0,.45-3,12.28,12.28,0,0,0-.31-2.9,5.84,5.84,0,0,0-1-2.22,4.56,4.56,0,0,0-1.9-1.42,7.48,7.48,0,0,0-2.9-.49h-3.34Z" transform="translate(-107.93 -81.83)"/><path class="cls-2" d="M493.84,341.16a10.62,10.62,0,0,1-.88,4.29,11.2,11.2,0,0,1-2.38,3.49,11,11,0,0,1-3.5,2.36,11.11,11.11,0,0,1-8.57,0,11.11,11.11,0,0,1-5.85-5.85,10.61,10.61,0,0,1-.87-4.29,10.74,10.74,0,0,1,.87-4.31,11.18,11.18,0,0,1,2.36-3.51,11,11,0,0,1,3.49-2.35,11,11,0,0,1,8.57,0,11,11,0,0,1,3.5,2.35,11.41,11.41,0,0,1,2.38,3.51,10.75,10.75,0,0,1,.88,4.31m-11-6.53a6.15,6.15,0,0,0-2.52.52,6.59,6.59,0,0,0-2.06,1.42,6.94,6.94,0,0,0-1.4,2.07,6.08,6.08,0,0,0-.52,2.52,6.15,6.15,0,0,0,.52,2.52,7,7,0,0,0,1.4,2.06,6.89,6.89,0,0,0,2.06,1.4,6.15,6.15,0,0,0,2.52.52,6,6,0,0,0,2.51-.52,7.05,7.05,0,0,0,2-1.4,6.8,6.8,0,0,0,1.39-2.06,6.48,6.48,0,0,0,.5-2.52,6.4,6.4,0,0,0-.5-2.52,6.74,6.74,0,0,0-3.43-3.49,6,6,0,0,0-2.51-.52" transform="translate(-107.93 -81.83)"/><path class="cls-2" d="M501,344.83a3.91,3.91,0,0,0,.39,1.82,3.34,3.34,0,0,0,1,1.2,4.44,4.44,0,0,0,1.49.69,7.07,7.07,0,0,0,1.81.22,9.31,9.31,0,0,0,1.34-.1,4.72,4.72,0,0,0,1.34-.4,3,3,0,0,0,1-.82,2.06,2.06,0,0,0,.42-1.33,1.85,1.85,0,0,0-.55-1.4,4.56,4.56,0,0,0-1.45-.91,11.87,11.87,0,0,0-2-.63c-.75-.17-1.52-.36-2.29-.58a20.33,20.33,0,0,1-2.33-.73,8.14,8.14,0,0,1-2-1.12,5.39,5.39,0,0,1-1.44-1.7,5.14,5.14,0,0,1-.55-2.5,5.53,5.53,0,0,1,.7-2.85,6.21,6.21,0,0,1,1.83-2,8.18,8.18,0,0,1,2.57-1.19,10.77,10.77,0,0,1,2.86-.39,13.42,13.42,0,0,1,3.2.38,7.86,7.86,0,0,1,2.73,1.2,6.12,6.12,0,0,1,1.9,2.14,6.59,6.59,0,0,1,.7,3.14h-4.53a3.78,3.78,0,0,0-.41-1.58,2.61,2.61,0,0,0-.91-1,3.81,3.81,0,0,0-1.31-.51,8,8,0,0,0-1.58-.15,5.35,5.35,0,0,0-1.13.12,3,3,0,0,0-1,.42,2.5,2.5,0,0,0-.76.76,2,2,0,0,0-.3,1.12,1.89,1.89,0,0,0,.24,1,2,2,0,0,0,.94.7,13.75,13.75,0,0,0,1.94.66c.82.23,1.9.51,3.23.85l1,.25a10.87,10.87,0,0,1,1.32.45,8.15,8.15,0,0,1,1.4.73,6.38,6.38,0,0,1,1.29,1.1,5.41,5.41,0,0,1,.94,1.57,5.93,5.93,0,0,1,.35,2.1,6.49,6.49,0,0,1-.56,2.72,6,6,0,0,1-1.69,2.16,8.23,8.23,0,0,1-2.77,1.43,12.67,12.67,0,0,1-3.83.52,12.94,12.94,0,0,1-3.42-.45,8.5,8.5,0,0,1-2.91-1.37,6.69,6.69,0,0,1-2.74-5.75Z" transform="translate(-107.93 -81.83)"/><path class="cls-3" d="M371.59,175.68a19.76,19.76,0,0,0,38.81,0Z" transform="translate(-107.93 -81.83)"/><path class="cls-3" d="M231.3,191.73a19.76,19.76,0,0,0,19.4-16H211.89a19.77,19.77,0,0,0,19.41,16" transform="translate(-107.93 -81.83)"/><path class="cls-3" d="M288.85,192.57h31.91v48.51l12.05-8.75V102.8h4.86V228.56H338L366.37,208V120.7a35.59,35.59,0,0,1,7.24,5.62c4.73,4.73,9.56,7.3,14.4,7.69l-15.94,36.41a.82.82,0,0,0,.75,1.14h36.34a.81.81,0,0,0,.75-1.14l-16.18-37a20.62,20.62,0,0,0,10.39-7.56,3,3,0,0,0-5-3.41c0,.05-3.51,5-8.9,5.49-3.87.36-8-1.64-12.3-5.93a40.59,40.59,0,0,0-11.53-8.17V98.58h0a59.09,59.09,0,0,0-16.66-11.45,58.71,58.71,0,0,0-75.4,24.37,30.87,30.87,0,0,0-4.72-.7c-9.83-.68-19.6,3.31-27.51,11.22-4.29,4.29-8.43,6.29-12.3,5.93-5.35-.48-8.81-5.37-8.9-5.49a3,3,0,0,0-5,3.41c.19.29,4.73,6.88,12.5,8l-16,36.53a.81.81,0,0,0,.75,1.14h36.34a.82.82,0,0,0,.75-1.14l-16.08-36.74c4.11-.88,8.21-3.34,12.23-7.36,6.65-6.66,14.75-10,22.8-9.46a22.25,22.25,0,0,1,2.32.27,58.81,58.81,0,0,0-4.86,23.39c0,1.62.07,3.22.2,4.8v25.43H255.92v21.82h10.91v13.3l22,16ZM391,137.78l12.93,29.53H378.07ZM349.71,117V102.61h4.61V206.74h-4.61Zm-60.86,22a34.79,34.79,0,0,1,2.87-14.07,37,37,0,0,1,19.43-19.43,34.1,34.1,0,0,1,9.61-2.61v67.88H288.85Zm-44.63,28.33H218.37l12.93-29.53Z" transform="translate(-107.93 -81.83)"/><rect class="cls-4" x="241.78" y="20.77" width="4.61" height="0.15"/></svg>