<svg width="80" height="59" viewBox="0 0 80 59" fill="none" xmlns="http://www.w3.org/2000/svg">
<path d="M53.0335 13.2046L47.7455 2.69446C46.6923 -0.816244 41.2288 -1.2112 39.5831 3.3966L27.2079 27.1816C26.791 28.169 25.7817 28.0373 25.4306 27.0719L22.0735 18.5365C20.8228 15.3769 16.3906 15.5743 15.118 18.734L0 41.1366H5.83654C6.50744 41.1356 7.16636 40.9588 7.74767 40.6239C8.32898 40.289 8.8124 39.8076 9.14976 39.2277L17.6852 26.9402C17.7585 26.7875 17.8746 26.6593 18.0192 26.5711C18.1638 26.4829 18.3309 26.4384 18.5003 26.4431C18.6696 26.4477 18.834 26.5013 18.9736 26.5973C19.1132 26.6933 19.222 26.8276 19.2869 26.9841L23.5656 37.2749C24.3994 39.6007 28.3928 39.6007 29.6874 36.8799C30.1481 35.695 42.8525 10.4399 42.8525 10.4399C42.923 10.2688 43.0412 10.1215 43.1931 10.0156C43.3449 9.90975 43.524 9.84977 43.709 9.84283C43.894 9.8359 44.0771 9.88229 44.2364 9.97648C44.3958 10.0707 44.5247 10.2087 44.6078 10.3741L48.9523 18.8217L53.0335 13.2046Z" fill="white" fill-opacity="0.4"/>
<path d="M50.0488 20.5552L56.9166 33.5667C57.8821 35.3001 59.4619 37.3188 61.7877 37.3188H69.3577C72.7148 37.3188 73.8119 35.5415 74.4482 34.0933L79.9995 20.0505H75.9622C75.9622 20.0505 73.9435 20.0944 73.2195 21.9594L70.2573 29.5294C69.599 30.9995 68.5019 31.7236 67.1854 31.7236H64.9254C62.446 31.7236 61.7877 30.1438 61.0856 28.8273L54.1958 14.9819L50.0488 20.5552Z" fill="white" fill-opacity="0.4"/>
<path d="M0.285156 43.7916H1.90886C2.10148 43.7913 2.29216 43.83 2.4694 43.9054C2.64664 43.9808 2.80677 44.0914 2.94012 44.2304L6.51665 47.8069L9.8957 44.4059C10.0911 44.2095 10.3237 44.054 10.5799 43.9485C10.8361 43.843 11.1107 43.7897 11.3877 43.7916H12.7481V52.5683H10.5101V46.8854L6.51665 50.7252L2.50129 46.8854V52.5683H0.285156V43.7916Z" fill="white" fill-opacity="0.4"/>
<path d="M29.2041 43.7915H29.7307C30.0071 43.7896 30.2786 43.8645 30.515 44.0078C30.7513 44.1512 30.9432 44.3574 31.0692 44.6034L35.0626 52.6561H24.0039L27.8876 44.6253C28.0069 44.3769 28.1935 44.1671 28.4263 44.0197C28.6591 43.8722 28.9286 43.7932 29.2041 43.7915ZM31.881 50.9665L29.4894 46.0954L27.1635 50.9665H31.881Z" fill="white" fill-opacity="0.4"/>
<path d="M46.3184 43.7915H48.0518C48.3879 43.7962 48.7184 43.8788 49.0172 44.0329L55.4242 47.368V43.7915H56.1703C56.5622 43.7915 56.9384 43.9456 57.2176 44.2207C57.4968 44.4958 57.6565 44.8697 57.6623 45.2616V52.656H55.4242V49.7378L48.5564 46.1832V52.656H46.3184V43.7915Z" fill="white" fill-opacity="0.4"/>
<path d="M69.0072 43.7917H69.7533C69.9482 43.7888 70.1417 43.8246 70.3226 43.8972C70.5035 43.9698 70.6682 44.0776 70.807 44.2144C70.9458 44.3512 71.0561 44.5143 71.1313 44.6941C71.2066 44.8739 71.2453 45.0669 71.2453 45.2618V47.5657C71.2382 48.0196 71.3049 48.4716 71.4428 48.9041C71.5648 49.2717 71.7759 49.6034 72.0572 49.8696C72.3277 50.1562 72.6679 50.3679 73.0445 50.4839C73.4985 50.6293 73.9722 50.7033 74.4488 50.7034C74.9184 50.7054 75.3853 50.6313 75.8312 50.4839C76.2166 50.3733 76.5652 50.1611 76.8405 49.8696C77.1218 49.6034 77.3328 49.2717 77.4549 48.9041C77.5927 48.4716 77.6594 48.0196 77.6523 47.5657V45.2618C77.6581 44.8699 77.8178 44.496 78.097 44.2209C78.3762 43.9458 78.7524 43.7916 79.1444 43.7917H79.8904V47.829C79.9066 48.5062 79.7795 49.1791 79.5174 49.8037C79.2809 50.3855 78.9216 50.9094 78.4642 51.3397C77.969 51.7797 77.3854 52.1088 76.7527 52.3051C75.2524 52.7726 73.6453 52.7726 72.1449 52.3051C71.5122 52.1088 70.9287 51.7797 70.4335 51.3397C69.976 50.9094 69.6168 50.3855 69.3802 49.8037C69.1181 49.1791 68.991 48.5062 69.0072 47.829V43.7917Z" fill="white" fill-opacity="0.4"/>
<path d="M0.35086 58.4048C0.330418 58.4065 0.309852 58.4035 0.290804 58.3958C0.271756 58.3882 0.254753 58.3763 0.24115 58.3609C0.214284 58.3305 0.198776 58.2917 0.197266 58.2512V56.0789C0.197266 56.0351 0.219209 56.0131 0.24115 55.9692L0.35086 55.9254H1.07494C1.26342 55.9235 1.45021 55.9609 1.62349 56.0351C1.77834 56.093 1.91476 56.1915 2.01844 56.3203C2.12236 56.4361 2.20417 56.57 2.2598 56.7153C2.30318 56.865 2.32534 57.0201 2.32563 57.176C2.3236 57.3246 2.30146 57.4722 2.2598 57.6149C2.21426 57.7649 2.13119 57.9009 2.01844 58.0098C1.92124 58.1453 1.78261 58.2454 1.62349 58.2951C1.45352 58.3794 1.26427 58.4173 1.07494 58.4048H0.35086ZM0.526394 58.1195H1.03106C1.21508 58.1224 1.39665 58.077 1.55766 57.9879C1.69794 57.9137 1.81263 57.799 1.88679 57.6588C1.97658 57.514 2.02233 57.3463 2.01844 57.176C2.02169 56.9989 1.97614 56.8243 1.88679 56.6714C1.81263 56.5311 1.69794 56.4164 1.55766 56.3423C1.39155 56.2698 1.21227 56.2325 1.03106 56.2325H0.526394V58.1195Z" fill="white" fill-opacity="0.4"/>
<path d="M4.45469 58.4268L4.34498 58.3829C4.30109 58.3609 4.3011 58.3171 4.3011 58.2732C4.30009 58.2613 4.30151 58.2493 4.30528 58.238C4.30906 58.2267 4.3151 58.2163 4.32304 58.2074L5.22265 56.057L5.31042 55.9473C5.32823 55.9315 5.34909 55.9194 5.37173 55.9118C5.39436 55.9043 5.4183 55.9014 5.44207 55.9035H5.46401C5.48779 55.9014 5.51172 55.9043 5.53436 55.9118C5.557 55.9194 5.57786 55.9315 5.59567 55.9473L5.68343 56.057L6.58305 58.2074V58.2732C6.58154 58.3137 6.56603 58.3525 6.53917 58.3829C6.52136 58.3988 6.5005 58.4108 6.47786 58.4184C6.45523 58.4259 6.43129 58.4288 6.40752 58.4268C6.39309 58.43 6.37816 58.4302 6.36364 58.4275C6.34912 58.4248 6.33529 58.4191 6.323 58.4109C6.3107 58.4027 6.30019 58.3921 6.29209 58.3798C6.28399 58.3674 6.27847 58.3536 6.27586 58.339L6.0345 57.7685H4.84964L4.60828 58.339C4.59485 58.3677 4.57288 58.3915 4.54539 58.4072C4.51789 58.4229 4.48621 58.4298 4.45469 58.4268ZM4.95935 57.4833H5.92479L5.44207 56.3204L4.95935 57.4833Z" fill="white" fill-opacity="0.4"/>
<path d="M9.28174 58.4267L9.17203 58.3828C9.12815 58.3608 9.12815 58.317 9.12815 58.2731V56.2325H8.40407L8.29436 56.1886C8.279 56.175 8.26703 56.158 8.25942 56.1389C8.2518 56.1199 8.24873 56.0993 8.25047 56.0789C8.25047 56.035 8.25047 55.9911 8.29436 55.9692L8.40407 55.9253H10.1594L10.2691 55.9692C10.313 55.9911 10.313 56.035 10.313 56.0789C10.3147 56.0993 10.3117 56.1199 10.3041 56.1389C10.2964 56.158 10.2845 56.175 10.2691 56.1886L10.1594 56.2325H9.43533V58.2731C9.43533 58.317 9.43533 58.3608 9.39145 58.3828L9.28174 58.4267Z" fill="white" fill-opacity="0.4"/>
<path d="M12.1345 58.4266C12.0873 58.4252 12.0415 58.4099 12.0029 58.3827C11.976 58.3524 11.9605 58.3136 11.959 58.273V58.2072L12.8805 56.0569C12.8805 56.013 12.9244 55.9911 12.9464 55.9472L13.078 55.9033H13.1219L13.2536 55.9472L13.3194 56.0569L14.2409 58.2072V58.273C14.2409 58.3169 14.2409 58.3608 14.1971 58.3827L14.0873 58.4266C14.0558 58.4296 14.0241 58.4228 13.9966 58.4071C13.9692 58.3914 13.9472 58.3675 13.9338 58.3389L13.6924 57.7684H12.4856L12.2662 58.3389C12.2526 58.3628 12.2337 58.3832 12.2108 58.3984C12.1879 58.4137 12.1618 58.4233 12.1345 58.4266ZM12.6392 57.4831H13.6046L13.1219 56.3202L12.6392 57.4831Z" fill="white" fill-opacity="0.4"/>
<path d="M19.1555 58.4048C19.1351 58.4065 19.1145 58.4035 19.0955 58.3958C19.0764 58.3882 19.0594 58.3763 19.0458 58.3609C19.019 58.3305 19.0035 58.2917 19.002 58.2512V56.0789C19.002 56.0351 19.0239 56.0131 19.0458 55.9692L19.1555 55.9254H19.8796C20.0681 55.9235 20.2549 55.9609 20.4282 56.0351C20.5767 56.1043 20.7107 56.2011 20.8231 56.3203C20.9193 56.4417 21.0004 56.5743 21.0645 56.7153C21.1079 56.865 21.13 57.0201 21.1303 57.176C21.1283 57.3246 21.1061 57.4722 21.0645 57.6149C21.0108 57.7611 20.9288 57.8953 20.8231 58.0098C20.7167 58.1357 20.5811 58.2337 20.4282 58.2951C20.2582 58.3794 20.069 58.4173 19.8796 58.4048H19.1555ZM19.3311 58.1195H19.8357C20.0198 58.1224 20.2013 58.077 20.3623 57.9879C20.4978 57.9074 20.611 57.7942 20.6915 57.6588C20.7813 57.514 20.827 57.3463 20.8231 57.176C20.8264 56.9989 20.7808 56.8243 20.6915 56.6714C20.611 56.5359 20.4978 56.4228 20.3623 56.3423C20.1962 56.2698 20.017 56.2325 19.8357 56.2325H19.3311V58.1195Z" fill="white" fill-opacity="0.4"/>
<path d="M23.4783 58.4266L23.3686 58.3827C23.3247 58.3608 23.3247 58.3169 23.3247 58.273V56.0788C23.323 56.0584 23.326 56.0378 23.3336 56.0188C23.3413 55.9997 23.3532 55.9827 23.3686 55.9691L23.4783 55.9253H24.3121C24.4991 55.9152 24.6861 55.9451 24.8606 56.013C24.9898 56.0636 25.0981 56.1564 25.1678 56.2763C25.2469 56.384 25.2858 56.516 25.2775 56.6493C25.2746 56.7812 25.2367 56.9099 25.1678 57.0223C25.0872 57.1503 24.9622 57.2441 24.8167 57.2856C24.9049 57.3236 24.9864 57.3755 25.0581 57.4392L25.1898 57.6587L25.2556 57.922V58.273C25.2541 58.3136 25.2386 58.3523 25.2117 58.3827L25.102 58.4266L24.9703 58.3827C24.9435 58.3523 24.928 58.3136 24.9265 58.273V57.9439L24.8606 57.7025C24.8216 57.6344 24.7694 57.5748 24.707 57.527C24.6101 57.4621 24.4943 57.4312 24.3779 57.4392H23.6538V58.273C23.6557 58.2959 23.6504 58.3188 23.6386 58.3385C23.6267 58.3582 23.6091 58.3736 23.588 58.3827L23.4783 58.4266ZM23.6538 57.1321H24.2901C24.4575 57.1344 24.623 57.0967 24.7729 57.0223C24.8319 56.9859 24.8795 56.9338 24.9105 56.8718C24.9415 56.8098 24.9546 56.7403 24.9484 56.6713C24.9443 56.5893 24.9296 56.5081 24.9045 56.4299C24.8492 56.3571 24.7724 56.3034 24.6851 56.2763L24.2682 56.2324H23.6538V57.1321Z" fill="white" fill-opacity="0.4"/>
<path d="M27.6697 58.4266C27.6224 58.4252 27.5767 58.41 27.538 58.3827C27.5112 58.3524 27.4957 58.3136 27.4941 58.273V56.0789C27.4985 56.0322 27.5135 55.9872 27.538 55.9472C27.5767 55.92 27.6224 55.9047 27.6697 55.9033L27.7794 55.9472C27.8039 55.9872 27.8189 56.0322 27.8233 56.0789V58.273C27.8218 58.3136 27.8063 58.3524 27.7794 58.3827L27.6697 58.4266Z" fill="white" fill-opacity="0.4"/>
<path d="M31.0038 58.4266C30.9554 58.4289 30.9076 58.415 30.8679 58.3872C30.8282 58.3594 30.7989 58.3193 30.7844 58.273L29.9067 56.1227C29.9067 56.1008 29.8848 56.1008 29.8848 56.0789C29.8862 56.0316 29.9015 55.9858 29.9287 55.9472L30.0603 55.9033C30.1261 55.9033 30.17 55.9472 30.2139 56.013L31.0477 58.0975L31.8815 56.013C31.894 55.982 31.9151 55.9552 31.9423 55.9358C31.9695 55.9163 32.0017 55.9051 32.0351 55.9033L32.1448 55.9472C32.1887 55.9911 32.1887 56.013 32.1887 56.0789V56.1227L31.311 58.273C31.2452 58.3827 31.1793 58.4266 31.0916 58.4266H31.0038Z" fill="white" fill-opacity="0.4"/>
<path d="M34.4275 58.4047C34.3836 58.4047 34.3397 58.4047 34.3178 58.3608C34.2959 58.317 34.2739 58.295 34.2739 58.2511V56.0789C34.2722 56.0584 34.2752 56.0379 34.2829 56.0188C34.2905 55.9998 34.3024 55.9828 34.3178 55.9692L34.4275 55.9253H35.8537L35.9634 55.9692C36.0073 55.9911 36.0073 56.035 36.0073 56.0789C36.0091 56.0993 36.006 56.1199 35.9984 56.1389C35.9908 56.158 35.9788 56.175 35.9634 56.1886L35.8537 56.2325H34.603V57.0224H35.7221C35.766 57.0224 35.8098 57.0224 35.8318 57.0663C35.8537 57.1102 35.8757 57.1321 35.8757 57.176C35.8774 57.1964 35.8743 57.217 35.8667 57.236C35.8591 57.2551 35.8471 57.2721 35.8318 57.2857H34.603V58.0975H35.8537C35.8976 58.0975 35.9415 58.0975 35.9634 58.1414C35.9854 58.1853 36.0073 58.2072 36.0073 58.2511C36.0096 58.2685 36.0066 58.2861 35.9988 58.3017C35.991 58.3174 35.9787 58.3303 35.9634 58.3389C35.9415 58.3828 35.8976 58.3828 35.8537 58.3828L34.4275 58.4047Z" fill="white" fill-opacity="0.4"/>
<path d="M38.3545 58.4271L38.2228 58.3832C38.196 58.3528 38.1805 58.314 38.179 58.2735V56.1451C38.1755 56.1126 38.1794 56.0797 38.1903 56.0488C38.2012 56.018 38.2189 55.99 38.242 55.9668C38.2651 55.9437 38.2932 55.926 38.324 55.9151C38.3549 55.9042 38.3878 55.9003 38.4203 55.9038H38.5739C38.5959 55.9257 38.6397 55.9477 38.6617 55.9915L40.0221 57.9663V56.0574C40.0262 56.0066 40.0498 55.9595 40.0879 55.9257L40.1976 55.8818L40.3073 55.9257C40.3318 55.9657 40.3468 56.0107 40.3512 56.0574V58.1857C40.3521 58.2146 40.3467 58.2433 40.3353 58.2698C40.324 58.2964 40.3069 58.3201 40.2854 58.3393C40.262 58.3615 40.2344 58.3787 40.2043 58.39C40.1741 58.4013 40.142 58.4064 40.1098 58.4052H39.9782L39.8904 58.3393L38.5081 56.3426V58.2735C38.5066 58.314 38.4911 58.3528 38.4642 58.3832L38.3545 58.4271Z" fill="white" fill-opacity="0.4"/>
<path d="M45.42 58.4269L45.3103 58.383C45.2893 58.3739 45.2716 58.3584 45.2598 58.3387C45.248 58.3191 45.2426 58.2962 45.2445 58.2733V56.1449C45.2495 56.0826 45.2766 56.0241 45.3208 55.9798C45.365 55.9356 45.4235 55.9086 45.4859 55.9036H45.5956L45.7272 55.9475C45.7495 55.9574 45.7691 55.9726 45.7844 55.9917C45.7997 56.0108 45.8102 56.0332 45.815 56.0572L46.6269 58.0758L47.4387 56.0572C47.4551 56.012 47.486 55.9734 47.5265 55.9475L47.6581 55.9036H47.7678C47.8004 55.9001 47.8333 55.904 47.8641 55.9149C47.895 55.9258 47.923 55.9435 47.9462 55.9666C47.9693 55.9897 47.987 56.0178 47.9979 56.0486C48.0088 56.0795 48.0126 56.1124 48.0092 56.1449V58.2733C48.0077 58.3138 47.9922 58.3526 47.9653 58.383L47.8556 58.4269L47.7239 58.383C47.6971 58.3526 47.6816 58.3138 47.6801 58.2733V56.2546L46.8682 58.2733L46.7804 58.383C46.7601 58.4019 46.7356 58.4158 46.7089 58.4234C46.6822 58.4311 46.6541 58.4322 46.6269 58.4269C46.603 58.4304 46.5787 58.4283 46.5558 58.4207C46.5329 58.413 46.5122 58.4001 46.4952 58.383C46.4547 58.357 46.4239 58.3185 46.4074 58.2733L45.5736 56.2546V58.2733C45.5721 58.3138 45.5566 58.3526 45.5298 58.383L45.42 58.4269Z" fill="white" fill-opacity="0.4"/>
<path d="M50.3352 58.4266L50.2255 58.3827C50.1816 58.3608 50.1816 58.3169 50.1816 58.273V58.2072L51.1032 56.0569L51.169 55.9472L51.3007 55.9033H51.3446L51.4762 55.9472C51.4982 55.9911 51.542 56.013 51.542 56.0569L52.4636 58.2072V58.273C52.4703 58.3111 52.4625 58.3502 52.4417 58.3827L52.31 58.4266C52.2789 58.4269 52.2483 58.4189 52.2213 58.4035C52.1944 58.3881 52.1719 58.3658 52.1564 58.3389L51.937 57.7684H50.7082L50.4888 58.3389C50.4754 58.3675 50.4534 58.3914 50.4259 58.4071C50.3984 58.4228 50.3668 58.4296 50.3352 58.4266ZM50.8399 57.4831H51.8053L51.3226 56.3202L50.8399 57.4831Z" fill="white" fill-opacity="0.4"/>
<path d="M54.7884 58.4269L54.6786 58.383C54.6518 58.3526 54.6363 58.3138 54.6348 58.2733V56.0791C54.6348 56.0352 54.6567 56.0133 54.6786 55.9694L54.7884 55.9255H55.6222C55.8093 55.9133 55.9967 55.9433 56.1707 56.0133C56.3055 56.064 56.4208 56.1562 56.4998 56.2766C56.5687 56.389 56.6066 56.5177 56.6095 56.6496C56.6097 56.7853 56.5632 56.917 56.4779 57.0226C56.4406 57.0883 56.3902 57.1456 56.3298 57.1909C56.2694 57.2362 56.2003 57.2685 56.1268 57.2859C56.2176 57.3188 56.3 57.3712 56.3682 57.4395C56.4319 57.4987 56.4775 57.5748 56.4998 57.6589C56.532 57.7438 56.5541 57.8322 56.5656 57.9222C56.5656 57.988 56.5876 58.0539 56.5876 58.0978V58.2733C56.5895 58.2962 56.5841 58.3191 56.5723 58.3387C56.5605 58.3584 56.5428 58.3739 56.5218 58.383L56.4121 58.4269L56.3023 58.383C56.2585 58.3611 56.2585 58.3172 56.2585 58.2733V58.1636C56.2609 58.0898 56.2535 58.016 56.2365 57.9442C56.2327 57.8598 56.2102 57.7774 56.1707 57.7028C56.1383 57.6302 56.0848 57.569 56.0171 57.5273C55.9294 57.4605 55.8197 57.4291 55.7099 57.4395H54.9639V58.2733C54.9624 58.3138 54.9469 58.3526 54.92 58.383C54.8814 58.4102 54.8356 58.4255 54.7884 58.4269ZM54.9639 57.1323H55.6002C55.7678 57.1373 55.9339 57.0996 56.0829 57.0226C56.1443 56.9872 56.195 56.9359 56.2298 56.8741C56.2645 56.8124 56.282 56.7424 56.2804 56.6715C56.2791 56.5868 56.2564 56.5038 56.2146 56.4302C56.1592 56.3574 56.0825 56.3037 55.9952 56.2766L55.6002 56.2327H54.9639V57.1323Z" fill="white" fill-opacity="0.4"/>
<path d="M58.9795 58.4266L58.8698 58.3827C58.8259 58.3608 58.8259 58.3169 58.8259 58.273V56.0789C58.8223 56.055 58.8245 56.0307 58.8321 56.0078C58.8397 55.9849 58.8526 55.9642 58.8698 55.9472L58.9795 55.9033L59.0892 55.9472C59.1063 55.9642 59.1192 55.9849 59.1268 56.0078C59.1345 56.0307 59.1366 56.055 59.1331 56.0789V57.1979L60.3618 55.9691C60.3837 55.9472 60.3838 55.9253 60.4057 55.9253H60.4715L60.6032 55.9691C60.6251 56.013 60.6471 56.035 60.6251 56.0789C60.62 56.1158 60.6126 56.1525 60.6032 56.1886L59.7694 57.0004L60.7129 58.1853C60.7348 58.2292 60.7568 58.2511 60.7568 58.295C60.7553 58.3355 60.7397 58.3743 60.7129 58.4047L60.6032 58.4486C60.5772 58.452 60.5507 58.4475 60.5273 58.4358C60.5038 58.4241 60.4844 58.4056 60.4715 58.3827L59.55 57.2198L59.1331 57.6148V58.295C59.1331 58.3389 59.1331 58.3828 59.0892 58.4047L58.9795 58.4266Z" fill="white" fill-opacity="0.4"/>
<path d="M63.0173 58.4047C62.9515 58.4047 62.9296 58.4047 62.8857 58.3608C62.8588 58.3304 62.8433 58.2917 62.8418 58.2511V56.0789C62.8418 56.035 62.8637 56.0131 62.8857 55.9692L63.0173 55.9253H64.4436L64.5533 55.9692C64.5801 55.9996 64.5956 56.0383 64.5971 56.0789C64.5971 56.1228 64.5752 56.1447 64.5533 56.1886L64.4436 56.2325H63.1709V57.0224H64.3119C64.3323 57.0206 64.3529 57.0237 64.372 57.0313C64.391 57.0389 64.408 57.0509 64.4216 57.0663C64.4485 57.0967 64.464 57.1354 64.4655 57.176C64.4655 57.2199 64.4435 57.2418 64.4216 57.2857H63.1709V58.0975H64.4436C64.464 58.0958 64.4846 58.0989 64.5036 58.1065C64.5227 58.1141 64.5397 58.1261 64.5533 58.1414C64.5673 58.1538 64.5785 58.169 64.5862 58.186C64.5939 58.203 64.5978 58.2215 64.5978 58.2402C64.5978 58.2588 64.5939 58.2773 64.5862 58.2943C64.5785 58.3113 64.5673 58.3265 64.5533 58.3389C64.5397 58.3543 64.5227 58.3662 64.5036 58.3738C64.4846 58.3815 64.464 58.3845 64.4436 58.3828L63.0173 58.4047Z" fill="white" fill-opacity="0.4"/>
<path d="M67.4942 58.4267L67.3844 58.3828C67.3576 58.3524 67.3421 58.3136 67.3406 58.2731V56.2325H66.6165L66.5068 56.1886C66.4848 56.1447 66.4629 56.1228 66.4629 56.0789C66.4644 56.0383 66.4799 55.9996 66.5068 55.9692L66.6165 55.9253H68.3938L68.5035 55.9692C68.5303 55.9996 68.5459 56.0383 68.5474 56.0789C68.5474 56.1228 68.5254 56.1447 68.5035 56.1886L68.3938 56.2325H67.6697V58.2731C67.6682 58.3136 67.6527 58.3524 67.6258 58.3828L67.4942 58.4267Z" fill="white" fill-opacity="0.4"/>
<path d="M70.74 58.4266L70.6083 58.3827C70.5815 58.3524 70.566 58.3136 70.5645 58.273V56.0789C70.5688 56.0322 70.5839 55.9872 70.6083 55.9472L70.74 55.9033L70.8497 55.9472C70.8742 55.9872 70.8892 56.0322 70.8936 56.0789V58.273C70.8921 58.3136 70.8766 58.3524 70.8497 58.3827L70.74 58.4266Z" fill="white" fill-opacity="0.4"/>
<path d="M73.3966 58.4271L73.2869 58.3832C73.2658 58.3741 73.2481 58.3586 73.2363 58.3389C73.2245 58.3193 73.2192 58.2964 73.2211 58.2735V56.1451C73.2261 56.0828 73.2531 56.0243 73.2973 55.98C73.3416 55.9358 73.4001 55.9088 73.4624 55.9038H73.616C73.655 55.9214 73.6862 55.9526 73.7038 55.9915L75.0861 57.9663V56.0574C75.0826 56.0335 75.0847 56.0092 75.0924 55.9863C75.1 55.9634 75.1129 55.9427 75.13 55.9257L75.2397 55.8818L75.3494 55.9257C75.3666 55.9427 75.3795 55.9634 75.3871 55.9863C75.3947 56.0092 75.3968 56.0335 75.3933 56.0574V58.1857C75.3933 58.2439 75.3702 58.2997 75.3291 58.3409C75.2879 58.382 75.2321 58.4052 75.1739 58.4052H75.0203L74.9325 58.3393L73.5502 56.3426V58.2735C73.5487 58.314 73.5332 58.3528 73.5063 58.3832L73.3966 58.4271Z" fill="white" fill-opacity="0.4"/>
<path d="M78.8374 58.4486C78.6061 58.451 78.3785 58.3904 78.1791 58.2731C77.9875 58.1805 77.8329 58.0258 77.7403 57.8343C77.6513 57.651 77.5996 57.4519 77.5883 57.2485C77.577 57.045 77.6063 56.8414 77.6744 56.6494C77.7361 56.4956 77.8253 56.3543 77.9377 56.2325C78.0514 56.1203 78.1854 56.031 78.3327 55.9692C78.489 55.9188 78.6513 55.8893 78.8154 55.8814C78.9952 55.8725 79.1748 55.9024 79.342 55.9692L79.715 56.1447C79.737 56.1447 79.737 56.1667 79.7589 56.1886C79.7809 56.2106 79.7809 56.2325 79.7809 56.2764C79.7809 56.2934 79.7769 56.3102 79.7693 56.3255C79.7617 56.3407 79.7506 56.3539 79.737 56.3642C79.715 56.408 79.6712 56.408 79.6273 56.408H79.5614L79.2323 56.2545C79.1117 56.2171 78.9853 56.2022 78.8593 56.2106C78.6914 56.2024 78.5245 56.2404 78.3766 56.3203C78.2255 56.3868 78.1016 56.5029 78.0255 56.6494C77.949 56.8142 77.9115 56.9944 77.9158 57.176C77.9053 57.3441 77.9434 57.5117 78.0255 57.6587C78.092 57.8099 78.2081 57.9337 78.3546 58.0098C78.5144 58.102 78.6969 58.1476 78.8812 58.1415L79.2323 58.0976L79.4956 57.9879V57.3296H78.9032C78.8858 57.3319 78.8682 57.3289 78.8526 57.3211C78.837 57.3133 78.824 57.3009 78.8154 57.2857C78.7715 57.2638 78.7715 57.2418 78.7715 57.198C78.7715 57.1541 78.7715 57.1102 78.8154 57.0882L78.9032 57.0444H79.6053L79.737 57.0882C79.7615 57.1282 79.7765 57.1732 79.7809 57.2199V58.0317C79.7841 58.0767 79.7765 58.1219 79.7589 58.1634L79.6492 58.2512C79.5341 58.3177 79.4076 58.3624 79.2762 58.3828C79.1343 58.4279 78.9862 58.4501 78.8374 58.4486Z" fill="white" fill-opacity="0.4"/>
</svg>
