<svg width="133" height="91" viewBox="0 0 133 91" fill="none" xmlns="http://www.w3.org/2000/svg">
<path d="M16.783 44.3623L28.0107 73.1568C28.7327 74.9815 29.741 75.3653 32.2845 75.5116V76.9492C29.8353 76.7573 27.3407 76.7086 24.8915 76.7086C21.5805 76.7086 19.8046 76.8061 17.6937 76.9492V75.5149C20.4779 75.4661 21.5805 75.0335 21.5805 74.2139C21.5805 73.6382 21.2942 72.9649 21.0536 72.2949L18.3637 65.0483H10.639C9.48438 65.0483 8.90869 65.4809 8.47936 66.5835L6.2709 72.5876C6.03022 73.2609 5.83832 73.6935 5.83832 74.2139C5.83832 75.1734 6.41401 75.5149 9.67628 75.5149V76.9525C7.90366 76.8582 6.17333 76.7118 4.39746 76.7118C2.95985 76.7118 1.51899 76.9525 0.078125 76.9525V75.5149C1.90278 75.2742 3.43797 74.9359 3.91934 73.7845L15.5828 44.3656L16.783 44.3623ZM13.8558 52.6627H13.7614L10.1609 62.2153C10.0378 62.4729 9.9565 62.7485 9.92022 63.0317C9.92022 63.318 10.1121 63.6074 10.7366 63.6074H17.7913L13.8558 52.6627Z" fill="white"/>
<path d="M44.5243 76.7086H32.9551V75.4628H36.5068C36.6044 71.2866 36.7475 67.1592 36.7475 62.9829V53.5279C36.7475 47.2408 36.0742 46.9058 35.3066 46.857L32.9551 46.6651V45.2242C39.291 45.0811 40.8749 44.3623 41.4506 44.3623C41.521 44.3658 41.59 44.3838 41.6531 44.4152C41.7162 44.4466 41.7721 44.4907 41.8173 44.5448C41.8626 44.5989 41.8961 44.6617 41.9158 44.7294C41.9356 44.7971 41.9411 44.8681 41.932 44.938C41.932 48.4897 41.5482 50.0249 41.5482 54.4386V75.4628H44.5243V76.7086Z" fill="white"/>
<path d="M59.3522 60.2957C59.3522 58.471 58.4902 56.9358 55.3223 56.9358C54.7466 56.9358 51.6242 57.2611 51.6242 58.2368C51.6242 58.8125 52.395 59.437 52.395 61.2129C52.395 62.7025 51.4193 63.8149 49.8971 63.8149C48.6514 63.8149 47.8805 62.7123 47.8805 61.5576C47.8805 57.3847 53.0163 55.7031 56.4249 55.7031C61.1768 55.7031 64.1529 58.0092 64.1529 62.9497C64.1529 65.7827 63.8634 71.7803 63.8634 73.5562C63.8634 73.9432 64.1529 74.2294 64.9204 74.2294C65.4018 74.2294 66.6475 73.7513 67.607 73.7513C67.8477 73.7513 67.9323 73.8456 67.9323 74.0766C67.9323 74.7498 66.306 77.4852 63.3788 77.4852C61.0727 77.4852 59.3944 75.9012 59.2969 73.5822C57.3454 75.6475 55.3613 77.4852 52.3397 77.4852C48.9799 77.4852 46.7227 75.8589 46.7227 72.3495C46.7227 68.9409 50.8989 67.165 54.5937 66.2998L58.243 65.4314C59.105 65.2395 59.3457 65.1061 59.3457 64.1304L59.3522 60.2957ZM59.3522 66.6316C59.3522 66.3421 59.209 66.3063 58.9684 66.3063C57.4332 66.3063 51.5299 67.5553 51.5299 72.1153C51.5299 73.7416 52.8732 75.332 54.5547 75.332C57.6251 75.332 59.3522 72.5934 59.3522 69.4775V66.6316Z" fill="white"/>
<path d="M68.9053 75.461H71.3512C72.0732 75.461 72.3594 75.0772 72.3594 74.6446V64.8546C72.3594 59.2863 71.9756 58.7106 71.5918 58.6748L69.1915 58.4829V57.042C73.2734 56.8989 75.1436 56.4663 75.7193 56.4663C76.295 56.4663 76.7276 56.7558 76.8707 58.1479L77.1959 61.1695H77.2902C78.5392 58.7236 81.0339 55.6987 83.7205 55.6987C85.6427 55.6987 86.6477 56.7558 86.9372 57.4746C86.3615 58.9155 86.2184 61.1239 84.5368 61.1239C82.9106 61.1239 82.3284 58.6748 80.7932 58.6748C78.8254 58.6748 77.1471 61.7939 77.1471 65.3457V74.6576C77.1471 75.0902 77.4334 75.474 78.1554 75.474H80.6501V76.7197H68.9053V75.461Z" fill="white"/>
<path d="M107.395 71.3836C105.574 75.2216 102.643 77.4789 98.3238 77.4789C91.8448 77.4789 87.623 72.9644 87.623 66.4854C87.623 60.3056 92.5669 55.687 98.6133 55.687C102.308 55.687 107.493 58.1817 107.493 62.5986C107.493 64.1338 106.676 64.8071 105.235 64.8071C103.268 64.8071 102.5 62.5986 102.5 60.8715C102.5 59.4794 102.884 58.6143 102.884 57.8955C102.884 57.3198 100.282 56.7441 99.5728 56.7441C95.4941 56.7441 92.9962 60.6308 92.9962 66.1016C92.9962 70.7104 94.7721 75.3159 100.054 75.3159C102.835 75.3159 105.382 73.3644 106.579 70.9023L107.395 71.3836Z" fill="white"/>
<path d="M110.036 66.5829C110.036 60.1527 114.739 55.687 121.075 55.687C127.411 55.687 132.114 60.1527 132.114 66.5829C132.114 73.0132 127.411 77.4658 121.075 77.4658C114.739 77.4658 110.036 73.0001 110.036 66.5699M126.738 66.5699C126.738 62.1075 125.346 56.7311 121.075 56.7311C116.805 56.7311 115.413 62.1075 115.413 66.5699C115.413 71.0324 116.85 76.4088 121.075 76.4088C125.3 76.4088 126.738 71.0812 126.738 66.5699Z" fill="white"/>
<path d="M4.53075 90.837C4.34861 90.6548 4.17297 90.4695 3.91928 90.1865C3.66566 90.4301 3.36648 90.6213 3.03886 90.7491C2.71125 90.8769 2.36163 90.9388 2.01005 90.9313C0.73832 90.9313 0 90.0791 0 89.1001C0 88.2057 0.536665 87.5942 1.28149 87.1877V87.1584C0.952419 86.7768 0.761122 86.2957 0.738319 85.7923C0.734516 85.5757 0.7752 85.3606 0.857853 85.1603C0.940507 84.96 1.06337 84.7788 1.21885 84.6279C1.37433 84.477 1.55911 84.3596 1.76178 84.283C1.96444 84.2063 2.18067 84.1721 2.3971 84.1823C2.58484 84.1706 2.77296 84.1979 2.94959 84.2626C3.12621 84.3273 3.28749 84.428 3.42322 84.5582C3.55895 84.6884 3.66618 84.8454 3.73813 85.0192C3.81008 85.193 3.84518 85.3799 3.84121 85.5679C3.84121 86.2574 3.44441 86.8006 2.40686 87.3145V87.3438C2.95978 87.9943 3.58101 88.7001 3.99733 89.1684C4.34079 88.5829 4.55587 87.931 4.62832 87.256H5.40567C5.23004 88.2838 4.94707 89.1001 4.46244 89.6726C4.81371 90.0401 5.15198 90.4077 5.53902 90.824L4.53075 90.837ZM3.50295 89.7149C3.1159 89.2855 2.38734 88.4919 1.66203 87.656C1.41866 87.7864 1.21299 87.9773 1.06486 88.2103C0.916739 88.4433 0.83116 88.7106 0.816381 88.9863C0.814107 89.1619 0.847386 89.336 0.914215 89.4984C0.981044 89.6607 1.08004 89.8079 1.20524 89.931C1.33044 90.054 1.47926 90.1505 1.64272 90.2145C1.80619 90.2786 1.98093 90.3089 2.15641 90.3036C2.40944 90.3044 2.65985 90.2524 2.89169 90.1511C3.12353 90.0497 3.33171 89.9011 3.50295 89.7149ZM1.51567 85.7273C1.53461 86.1652 1.71003 86.5818 2.01005 86.9014C2.66055 86.5209 3.09639 86.1729 3.09639 85.62C3.10628 85.514 3.09411 85.4071 3.06065 85.306C3.02718 85.205 2.97315 85.1119 2.90195 85.0328C2.83076 84.9536 2.74394 84.8901 2.64698 84.8462C2.55001 84.8023 2.445 84.7789 2.33856 84.7776C1.79539 84.7776 1.51567 85.2231 1.51567 85.7273Z" fill="#43659A"/>
<path d="M7.63672 90.8377L10.7786 83.9229H12.3106L15.407 90.8377H13.9791L13.2538 89.3058H9.75085L9.02229 90.8377H7.63672ZM11.5658 85.2239L10.4014 87.9007H12.7074L11.582 85.2239H11.5658Z" fill="#43659A"/>
<path d="M17.1606 88.5406C17.1546 88.7453 17.1981 88.9484 17.2874 89.1326C17.3635 89.2866 17.4749 89.4203 17.6127 89.5229C17.7592 89.6266 17.9234 89.7027 18.0973 89.7473C18.2896 89.7965 18.4875 89.8205 18.686 89.8189C18.8319 89.8186 18.9775 89.8077 19.1218 89.7864C19.2729 89.7653 19.4198 89.7214 19.5577 89.6563C19.6847 89.5928 19.7958 89.5016 19.8829 89.3895C19.9774 89.2656 20.0257 89.1126 20.0195 88.957C20.0233 88.8728 20.0093 88.7887 19.9784 88.7103C19.9476 88.6318 19.9007 88.5607 19.8406 88.5016C19.7035 88.3741 19.5435 88.2736 19.369 88.2056C19.1586 88.1185 18.9409 88.0499 18.7185 88.0007C18.4713 87.9454 18.2241 87.8836 17.9704 87.8121C17.7133 87.7482 17.4602 87.6689 17.2126 87.5746C16.9792 87.4855 16.7601 87.3628 16.5621 87.2104C16.3674 87.0617 16.2066 86.8732 16.0905 86.6574C15.9632 86.4058 15.9017 86.1261 15.9116 85.8443C15.9026 85.5205 15.9813 85.2002 16.1393 84.9173C16.2893 84.6607 16.4922 84.439 16.7345 84.2668C16.9885 84.0902 17.2714 83.9592 17.5704 83.8798C17.8734 83.7962 18.1863 83.7535 18.5006 83.7529C18.8523 83.7524 19.2028 83.7939 19.5447 83.8765C19.8625 83.9498 20.1637 84.0822 20.4326 84.2668C20.6889 84.4478 20.8994 84.6861 21.0473 84.9629C21.2078 85.2788 21.2862 85.63 21.275 85.9842H19.8016C19.7951 85.8052 19.7496 85.6298 19.6682 85.4703C19.6009 85.337 19.4986 85.2246 19.3723 85.145C19.242 85.0633 19.0974 85.007 18.9462 84.9791C18.777 84.9457 18.6048 84.9294 18.4323 84.9304C18.3088 84.9305 18.1856 84.9436 18.0648 84.9694C17.9489 84.9948 17.8387 85.0411 17.7395 85.106C17.6402 85.1695 17.5558 85.2538 17.4923 85.3532C17.4245 85.4623 17.3906 85.5891 17.3947 85.7175C17.3902 85.831 17.4172 85.9436 17.4728 86.0427C17.5497 86.1474 17.6562 86.2267 17.7785 86.2704C17.9834 86.357 18.1943 86.4288 18.4095 86.4851C18.6762 86.5599 19.0275 86.6509 19.4601 86.7615L19.7853 86.8428C19.9316 86.8819 20.075 86.9308 20.2147 86.9892C20.3745 87.0541 20.528 87.1335 20.6733 87.2266C20.8268 87.3276 20.9667 87.4478 21.0896 87.5844C21.2209 87.7352 21.3244 87.9081 21.3953 88.095C21.4769 88.3134 21.5166 88.5451 21.5124 88.7781C21.5151 89.0829 21.4519 89.3847 21.327 89.6628C21.2005 89.9362 21.0124 90.1767 20.7774 90.3653C20.5094 90.5763 20.2036 90.7342 19.8764 90.8304C19.4723 90.9502 19.0521 91.0072 18.6307 90.9995C18.2551 91.0004 17.881 90.9512 17.5183 90.8532C17.1781 90.7669 16.8578 90.6156 16.5751 90.4076C16.2818 90.1953 16.0463 89.9129 15.89 89.5862C15.7338 89.2596 15.6618 88.899 15.6807 88.5374L17.1606 88.5406Z" fill="#43659A"/>
<path d="M29.0934 87.3468C29.0975 87.8269 29 88.3024 28.8072 88.7421C28.6235 89.1654 28.362 89.5504 28.0363 89.8772C27.7087 90.2041 27.3211 90.4647 26.8947 90.6448C26.4532 90.8294 25.9795 90.9244 25.501 90.9244C25.0225 90.9244 24.5488 90.8294 24.1073 90.6448C23.6834 90.4638 23.298 90.2033 22.9722 89.8772C22.6456 89.5518 22.3849 89.1664 22.2046 88.7421C22.017 88.301 21.9218 87.8261 21.9249 87.3468C21.9221 86.8654 22.0172 86.3884 22.2046 85.9449C22.3855 85.519 22.646 85.1315 22.9722 84.8033C23.2982 84.4782 23.6835 84.2188 24.1073 84.039C24.5483 83.8524 25.0222 83.7563 25.501 83.7563C25.9798 83.7563 26.4537 83.8524 26.8947 84.039C27.3211 84.2176 27.7088 84.4772 28.0363 84.8033C28.3614 85.1331 28.6227 85.5202 28.8072 85.9449C28.9998 86.387 29.0973 86.8646 29.0934 87.3468ZM25.5157 85.2229C25.2336 85.2208 24.9542 85.2785 24.696 85.392C24.4457 85.5026 24.2184 85.6593 24.026 85.8539C23.8347 86.0489 23.6804 86.277 23.5706 86.5271C23.4579 86.7856 23.4003 87.0648 23.4015 87.3468C23.401 87.6287 23.4586 87.9077 23.5706 88.1664C23.7891 88.6709 24.1915 89.0733 24.696 89.2918C24.9542 89.4053 25.2336 89.4629 25.5157 89.4609C25.7968 89.464 26.0753 89.4063 26.332 89.2918C26.5741 89.1797 26.7944 89.0256 26.9825 88.8364C27.1742 88.6436 27.3276 88.4163 27.4346 88.1664C27.5456 87.9075 27.6021 87.6285 27.6005 87.3468C27.6027 87.065 27.5462 86.7859 27.4346 86.5271C27.3284 86.2758 27.175 86.0473 26.9825 85.8539C26.7964 85.6607 26.5757 85.5041 26.332 85.392C26.0753 85.2775 25.7968 85.2198 25.5157 85.2229Z" fill="#43659A"/>
<path d="M36.2143 88.987C36.0663 89.2627 35.8838 89.5185 35.6711 89.7481C35.4591 89.9766 35.2173 90.1757 34.9523 90.34C34.6824 90.5082 34.39 90.6374 34.0839 90.7238C33.3098 90.9417 32.4848 90.8925 31.7421 90.584C30.9012 90.2256 30.2321 89.5552 29.8752 88.7138C29.6927 88.2826 29.5986 87.8192 29.5986 87.351C29.5986 86.8828 29.6927 86.4193 29.8752 85.9882C30.0538 85.5717 30.3086 85.1922 30.6265 84.8693C30.9462 84.5474 31.325 84.2901 31.7421 84.1115C32.175 83.9271 32.6409 83.833 33.1114 83.835C33.7457 83.8323 34.3684 84.0057 34.91 84.3359C35.1692 84.494 35.4075 84.6841 35.6191 84.9018C35.8271 85.1218 36.0074 85.3665 36.1557 85.6304L35.798 85.819L35.5345 85.9556L35.2548 86.0955L34.858 86.2906C34.6866 85.9906 34.4385 85.7414 34.1392 85.5686C33.8284 85.3839 33.4729 85.2883 33.1114 85.2921C32.8362 85.2893 32.5635 85.3447 32.3113 85.4547C32.0694 85.5616 31.849 85.7115 31.6608 85.8971C31.3715 86.1857 31.1751 86.5542 31.0969 86.9553C31.0187 87.3563 31.0621 87.7716 31.2217 88.1478C31.3247 88.391 31.4738 88.6119 31.6608 88.7983C31.8473 88.986 32.0682 89.1362 32.3113 89.2407C32.7814 89.4385 33.3084 89.4541 33.7894 89.2845C34.2704 89.1149 34.6711 88.7723 34.9133 88.3235L35.3068 88.5284L35.5833 88.6715L35.8468 88.8081L36.2143 88.9837" fill="#43659A"/>
<path d="M38.6755 83.9131H37.1533V90.8377H38.6755V83.9131Z" fill="#43659A"/>
<path d="M39.3555 90.8377L42.5007 83.9229H44.0326L47.1257 90.8377H45.7011L44.9726 89.3058H41.4696L40.7443 90.8377H39.3555ZM43.2813 85.2239L42.1169 87.9007H44.4164L43.2813 85.2239Z" fill="#43659A"/>
<path d="M47.835 83.9132H50.824C51.2487 83.9098 51.6706 83.9825 52.0697 84.1279C52.4472 84.267 52.7884 84.4893 53.0682 84.7784C53.3584 85.0838 53.5801 85.4474 53.7188 85.8452C53.8866 86.3291 53.967 86.839 53.9562 87.3511C53.9607 87.8233 53.895 88.2936 53.761 88.7464C53.643 89.151 53.4438 89.5272 53.1756 89.8523C52.9099 90.1669 52.5762 90.4171 52.1998 90.5841C51.7635 90.7712 51.2921 90.8621 50.8175 90.8508H47.835V83.9132ZM49.3669 89.5726H50.7264C50.9478 89.5739 51.1678 89.5377 51.3769 89.4652C51.5864 89.3918 51.7757 89.2703 51.9299 89.1107C52.1026 88.9231 52.2344 88.7016 52.3169 88.4602C52.4223 88.146 52.4719 87.8158 52.4633 87.4845C52.4663 87.167 52.4313 86.8504 52.3592 86.5412C52.3042 86.2799 52.1932 86.0336 52.034 85.8192C51.8741 85.6071 51.6593 85.4429 51.4127 85.3443C51.1109 85.229 50.7892 85.1749 50.4662 85.1849H49.3799L49.3669 89.5726Z" fill="#43659A"/>
<path d="M61.7067 87.3468C61.7108 87.8269 61.6133 88.3024 61.4205 88.7421C61.2368 89.1654 60.9753 89.5504 60.6496 89.8772C60.322 90.2041 59.9343 90.4647 59.508 90.6448C59.0665 90.8294 58.5928 90.9244 58.1143 90.9244C57.6358 90.9244 57.1621 90.8294 56.7206 90.6448C56.2967 90.4638 55.9113 90.2033 55.5855 89.8772C55.2589 89.5518 54.9982 89.1664 54.8179 88.7421C54.6302 88.301 54.535 87.8261 54.5382 87.3468C54.5353 86.8654 54.6305 86.3884 54.8179 85.9449C54.9988 85.519 55.2593 85.1315 55.5855 84.8033C55.9115 84.4782 56.2968 84.2188 56.7206 84.039C57.1616 83.8524 57.6355 83.7563 58.1143 83.7563C58.5931 83.7563 59.067 83.8524 59.508 84.039C59.9344 84.2176 60.322 84.4772 60.6496 84.8033C60.9747 85.1331 61.236 85.5202 61.4205 85.9449C61.613 86.387 61.7106 86.8646 61.7067 87.3468ZM58.1289 85.2229C57.8469 85.2208 57.5675 85.2785 57.3093 85.392C57.059 85.5026 56.8317 85.6593 56.6393 85.8539C56.448 86.0489 56.2937 86.277 56.1839 86.5271C56.0712 86.7856 56.0136 87.0648 56.0148 87.3468C56.0143 87.6287 56.0719 87.9077 56.1839 88.1664C56.4024 88.6709 56.8048 89.0733 57.3093 89.2918C57.5675 89.4053 57.8469 89.4629 58.1289 89.4609C58.4101 89.464 58.6886 89.4063 58.9453 89.2918C59.1874 89.1797 59.4077 89.0256 59.5958 88.8364C59.7875 88.6436 59.9409 88.4163 60.0479 88.1664C60.1589 87.9075 60.2153 87.6285 60.2138 87.3468C60.216 87.065 60.1595 86.7859 60.0479 86.5271C59.9417 86.2758 59.7882 86.0473 59.5958 85.8539C59.4096 85.6607 59.189 85.5041 58.9453 85.392C58.6886 85.2775 58.4101 85.2198 58.1289 85.2229Z" fill="#43659A"/>
<path d="M63.6156 88.5406C63.6097 88.7453 63.6532 88.9484 63.7425 89.1326C63.8185 89.2866 63.93 89.4203 64.0677 89.5229C64.2143 89.6266 64.3785 89.7027 64.5524 89.7473C64.7447 89.7965 64.9426 89.8205 65.1411 89.8189C65.2869 89.8186 65.4326 89.8077 65.5769 89.7864C65.7279 89.7653 65.8749 89.7214 66.0127 89.6563C66.1397 89.5928 66.2509 89.5016 66.338 89.3895C66.4324 89.2656 66.4807 89.1126 66.4746 88.957C66.4783 88.8728 66.4643 88.7887 66.4335 88.7103C66.4027 88.6318 66.3558 88.5607 66.2957 88.5016C66.1586 88.3741 65.9986 88.2736 65.8241 88.2056C65.6137 88.1185 65.396 88.0499 65.1736 88.0007C64.9264 87.9454 64.6792 87.8836 64.4255 87.8121C64.1684 87.7482 63.9153 87.6689 63.6677 87.5746C63.4343 87.4855 63.2151 87.3628 63.0172 87.2104C62.8225 87.0617 62.6617 86.8732 62.5456 86.6574C62.4183 86.4058 62.3568 86.1261 62.3667 85.8443C62.3577 85.5205 62.4364 85.2002 62.5944 84.9173C62.7444 84.6607 62.9472 84.439 63.1896 84.2668C63.4436 84.0902 63.7264 83.9592 64.0255 83.8798C64.3285 83.7962 64.6413 83.7535 64.9557 83.7529C65.3074 83.7524 65.6579 83.7939 65.9997 83.8765C66.3176 83.9498 66.6188 84.0822 66.8877 84.2668C67.144 84.4478 67.3545 84.6861 67.5024 84.9629C67.6629 85.2788 67.7412 85.63 67.7301 85.9842H66.2567C66.2502 85.8052 66.2047 85.6298 66.1233 85.4703C66.056 85.337 65.9537 85.2246 65.8273 85.145C65.6971 85.0633 65.5525 85.007 65.4013 84.9791C65.232 84.9457 65.0599 84.9294 64.8874 84.9304C64.7638 84.9305 64.6406 84.9436 64.5198 84.9694C64.404 84.9948 64.2938 85.0411 64.1946 85.106C64.0952 85.1695 64.0109 85.2538 63.9474 85.3532C63.8796 85.4623 63.8457 85.5891 63.8498 85.7175C63.8453 85.831 63.8723 85.9436 63.9279 86.0427C64.0048 86.1474 64.1113 86.2267 64.2336 86.2704C64.4385 86.357 64.6494 86.4288 64.8646 86.4851C65.1313 86.5599 65.4826 86.6509 65.9152 86.7615L66.2404 86.8428C66.3867 86.8819 66.5301 86.9308 66.6697 86.9892C66.8296 87.0541 66.9831 87.1335 67.1284 87.2266C67.2818 87.3276 67.4218 87.4478 67.5447 87.5844C67.676 87.7352 67.7795 87.9081 67.8504 88.095C67.9319 88.3134 67.9717 88.5451 67.9675 88.7781C67.9702 89.0829 67.907 89.3847 67.7821 89.6628C67.6556 89.9362 67.4674 90.1767 67.2324 90.3653C66.9645 90.5763 66.6587 90.7342 66.3315 90.8304C65.9273 90.9502 65.5072 91.0072 65.0858 90.9995C64.7101 91.0004 64.3361 90.9512 63.9734 90.8532C63.6332 90.7669 63.3129 90.6156 63.0302 90.4076C62.7369 90.1953 62.5014 89.9129 62.3451 89.5862C62.1889 89.2596 62.1169 88.899 62.1357 88.5374L63.6156 88.5406Z" fill="#43659A"/>
<path d="M71.1553 90.8377L74.2972 83.9229H75.8291L78.9255 90.8377H77.4977L76.7821 89.3058H73.2694L72.5538 90.8377H71.1553ZM75.0843 85.2239L73.9199 87.9007H76.2194L75.0941 85.2239H75.0843Z" fill="#43659A"/>
<path d="M80.0508 83.9133H83.3033C83.6059 83.9106 83.9079 83.94 84.2042 84.0011C84.4538 84.05 84.6913 84.1472 84.9035 84.2873C85.0978 84.4203 85.2537 84.602 85.3556 84.8142C85.468 85.0713 85.5224 85.3501 85.515 85.6306C85.5248 85.9382 85.4396 86.2414 85.2711 86.499C85.0939 86.7489 84.8537 86.9475 84.575 87.0747C84.9605 87.17 85.2988 87.4009 85.528 87.7252C85.7488 88.0522 85.8625 88.4398 85.8533 88.8343C85.8601 89.1486 85.7909 89.4599 85.6516 89.7418C85.5219 89.9915 85.3332 90.2059 85.1019 90.3662C84.8634 90.5329 84.5967 90.6552 84.3148 90.7273C84.0198 90.8056 83.7158 90.8449 83.4106 90.8444H80.0508V83.9133ZM81.573 86.7169H83.1147C83.3533 86.7268 83.5887 86.6583 83.7847 86.5218C83.8765 86.446 83.9482 86.3488 83.9936 86.2388C84.039 86.1287 84.0566 86.0092 84.0449 85.8908C84.0509 85.7535 84.0218 85.6169 83.9603 85.494C83.9047 85.3946 83.8239 85.3116 83.7261 85.2533C83.626 85.1929 83.5158 85.1511 83.4009 85.1297C83.2709 85.1072 83.1392 85.0963 83.0073 85.0972H81.5827L81.573 86.7169ZM81.573 89.6442H83.1992C83.3425 89.6442 83.4853 89.6289 83.6253 89.5986C83.7531 89.5724 83.8752 89.5239 83.9863 89.4555C84.0906 89.3842 84.1755 89.2881 84.2335 89.1758C84.2985 89.0365 84.3298 88.8839 84.3246 88.7302C84.3383 88.5888 84.3183 88.4461 84.2663 88.3138C84.2143 88.1815 84.1317 88.0634 84.0253 87.9691C83.7916 87.8084 83.5118 87.7285 83.2285 87.7415H81.5697L81.573 89.6442Z" fill="#43659A"/>
<path d="M93.9619 87.3468C93.9645 87.8267 93.867 88.3019 93.6757 88.7421C93.492 89.1662 93.2293 89.5514 92.9016 89.8772C92.5753 90.2042 92.1887 90.4648 91.7632 90.6448C91.3218 90.8294 90.848 90.9244 90.3695 90.9244C89.891 90.9244 89.4173 90.8294 88.9758 90.6448C88.1203 90.2792 87.4388 89.5976 87.0731 88.7421C86.8828 88.3017 86.7865 87.8265 86.7901 87.3468C86.7868 86.865 86.8831 86.3877 87.0731 85.9449C87.254 85.519 87.5145 85.1315 87.8407 84.8033C88.1664 84.4779 88.5518 84.2183 88.9758 84.039C89.4168 83.8524 89.8907 83.7563 90.3695 83.7563C90.8483 83.7563 91.3223 83.8524 91.7632 84.039C92.1884 84.218 92.575 84.4775 92.9016 84.8033C93.2287 85.1321 93.4913 85.5194 93.6757 85.9449C93.8667 86.3875 93.9642 86.8648 93.9619 87.3468ZM90.3842 85.2229C90.1021 85.2208 89.8228 85.2785 89.5645 85.392C89.3137 85.5018 89.0863 85.6585 88.8945 85.8539C88.7032 86.0489 88.549 86.277 88.4392 86.5271C88.325 86.7852 88.2673 87.0646 88.27 87.3468C88.268 87.6288 88.3256 87.9082 88.4392 88.1664C88.5497 88.4152 88.7039 88.6421 88.8945 88.8364C89.0883 89.0276 89.3154 89.182 89.5645 89.2918C89.8228 89.4053 90.1021 89.4629 90.3842 89.4609C90.6653 89.464 90.9438 89.4063 91.2005 89.2918C91.4422 89.179 91.6623 89.0249 91.851 88.8364C92.0416 88.6427 92.1949 88.4156 92.3031 88.1664C92.4115 87.9068 92.4668 87.6281 92.4658 87.3468C92.4675 87.0654 92.4122 86.7865 92.3031 86.5271C92.0866 86.0224 91.6885 85.6173 91.1875 85.392C90.9308 85.2775 90.6523 85.2198 90.3712 85.2229" fill="#43659A"/>
<path d="M101.797 87.3764C101.794 87.4853 101.784 87.5939 101.768 87.7017C101.752 87.8513 101.726 88.0269 101.693 88.1895C101.661 88.3628 101.62 88.5344 101.57 88.7034C101.535 88.8419 101.478 88.9738 101.401 89.0937C101.251 89.3712 101.065 89.6272 100.848 89.8548C100.631 90.0826 100.383 90.2796 100.113 90.4403C99.8372 90.6039 99.5421 90.7317 99.2344 90.8208C98.9168 90.9095 98.5885 90.9543 98.2587 90.9542C97.7815 90.9563 97.309 90.8612 96.8699 90.6745C96.4452 90.4916 96.059 90.23 95.7315 89.9036C95.403 89.5766 95.1412 89.1889 94.9606 88.762C94.7746 88.3215 94.6787 87.8481 94.6787 87.3699C94.6787 86.8917 94.7746 86.4184 94.9606 85.9778C95.3284 85.12 96.012 84.4364 96.8699 84.0686C97.6158 83.7506 98.4484 83.6989 99.2279 83.9223C99.532 84.01 99.8237 84.1356 100.096 84.2963C100.635 84.6106 101.083 85.0587 101.397 85.5973C101.241 85.6754 101.118 85.7404 101.023 85.7924C100.929 85.8445 100.841 85.89 100.753 85.9323L100.467 86.0722L100.061 86.2771C99.8773 85.9719 99.62 85.718 99.3125 85.5388C98.9957 85.351 98.6334 85.2543 98.2652 85.259C97.9836 85.2557 97.7045 85.3111 97.4456 85.4217C96.9437 85.633 96.5445 86.0322 96.3332 86.534C96.2241 86.7934 96.1688 87.0723 96.1706 87.3536C96.1695 87.635 96.2248 87.9137 96.3332 88.1733C96.4403 88.4224 96.5925 88.6495 96.782 88.8433C96.9672 89.0335 97.1883 89.1849 97.4325 89.2889C97.736 89.4129 98.0639 89.4657 98.3909 89.4431C98.7179 89.4206 99.0355 89.3233 99.319 89.1588C99.6324 88.972 99.8958 88.712 100.087 88.401C99.9045 88.401 99.7451 88.401 99.6085 88.401H99.1694H98.727H98.4018C98.3107 88.401 98.2652 88.401 98.2652 88.401V87.3536H100.89H101.804" fill="#43659A"/>
<path d="M102.35 90.8377L105.495 83.9229H107.03L110.123 90.8377H108.699L107.97 89.3058H104.467L103.738 90.8377H102.35ZM106.279 85.2239L105.114 87.9007H107.414L106.288 85.2239H106.279Z" fill="#43659A"/>
<path d="M111.259 83.9132H114.248C114.673 83.9095 115.095 83.9822 115.494 84.1279C115.871 84.267 116.212 84.4894 116.492 84.7784C116.782 85.0838 117.004 85.4475 117.143 85.8452C117.31 86.3291 117.391 86.8391 117.38 87.3511C117.384 87.8231 117.319 88.2931 117.188 88.7465C117.07 89.1517 116.87 89.5282 116.599 89.8523C116.334 90.1677 116.001 90.418 115.624 90.5841C115.187 90.7716 114.716 90.8626 114.241 90.8508H111.259V83.9132ZM112.771 89.5726H114.128C114.349 89.574 114.569 89.5377 114.778 89.4653C114.988 89.3925 115.177 89.271 115.331 89.1107C115.505 88.924 115.637 88.7022 115.718 88.4602C115.823 88.146 115.873 87.8158 115.864 87.4845C115.868 87.1672 115.834 86.8505 115.764 86.5412C115.707 86.2804 115.596 86.0344 115.438 85.8192C115.277 85.6134 115.063 85.4541 114.82 85.3573C114.52 85.2423 114.199 85.1881 113.877 85.198H112.791L112.771 89.5726Z" fill="#43659A"/>
<path d="M125.518 87.3468C125.52 87.8267 125.423 88.3019 125.231 88.7421C125.048 89.1662 124.785 89.5514 124.457 89.8772C124.131 90.2042 123.744 90.4648 123.319 90.6448C122.877 90.8294 122.404 90.9244 121.925 90.9244C121.447 90.9244 120.973 90.8294 120.531 90.6448C119.676 90.2792 118.994 89.5976 118.629 88.7421C118.438 88.3017 118.342 87.8265 118.346 87.3468C118.342 86.865 118.439 86.3877 118.629 85.9449C118.81 85.519 119.07 85.1315 119.396 84.8033C119.722 84.4779 120.107 84.2183 120.531 84.039C120.972 83.8524 121.446 83.7563 121.925 83.7563C122.404 83.7563 122.878 83.8524 123.319 84.039C123.744 84.218 124.131 84.4775 124.457 84.8033C124.784 85.1321 125.047 85.5194 125.231 85.9449C125.422 86.3875 125.52 86.8648 125.518 87.3468ZM121.94 85.2229C121.658 85.2208 121.378 85.2785 121.12 85.392C120.869 85.5018 120.642 85.6585 120.45 85.8539C120.259 86.0489 120.105 86.277 119.995 86.5271C119.881 86.7852 119.823 87.0646 119.826 87.3468C119.824 87.6288 119.881 87.9082 119.995 88.1664C120.105 88.4152 120.26 88.6421 120.45 88.8364C120.644 89.0276 120.871 89.182 121.12 89.2918C121.378 89.4053 121.658 89.4629 121.94 89.4609C122.221 89.464 122.499 89.4063 122.756 89.2918C122.998 89.179 123.218 89.0249 123.407 88.8364C123.597 88.6427 123.751 88.4156 123.859 88.1664C123.967 87.9068 124.022 87.6281 124.021 87.3468C124.023 87.0654 123.968 86.7865 123.859 86.5271C123.642 86.0224 123.244 85.6173 122.743 85.392C122.486 85.2775 122.208 85.2198 121.927 85.2229" fill="#43659A"/>
<path d="M127.846 88.5406C127.84 88.7453 127.884 88.9484 127.973 89.1326C128.049 89.2866 128.161 89.4203 128.298 89.5229C128.445 89.6272 128.609 89.7033 128.783 89.7473C128.975 89.7965 129.173 89.8205 129.372 89.8189C129.518 89.8186 129.663 89.8077 129.808 89.7864C129.959 89.7649 130.105 89.721 130.243 89.6563C130.37 89.5921 130.481 89.501 130.569 89.3896C130.663 89.2656 130.711 89.1127 130.705 88.957C130.709 88.8728 130.695 88.7887 130.664 88.7103C130.633 88.6319 130.586 88.5608 130.526 88.5016C130.389 88.3741 130.229 88.2736 130.055 88.2056C129.844 88.1183 129.627 88.0497 129.404 88.0007C129.16 87.9454 128.91 87.8836 128.66 87.8121C128.402 87.7482 128.149 87.6689 127.902 87.5746C127.669 87.4845 127.45 87.3619 127.251 87.2104C127.058 87.0607 126.899 86.8724 126.783 86.6574C126.656 86.4058 126.594 86.1261 126.604 85.8443C126.595 85.5205 126.674 85.2002 126.832 84.9173C126.98 84.6593 127.183 84.4372 127.427 84.2668C127.681 84.0902 127.964 83.9592 128.263 83.8798C128.566 83.796 128.879 83.7533 129.193 83.7529C129.544 83.7522 129.893 83.7937 130.234 83.8765C130.552 83.9488 130.853 84.0813 131.122 84.2668C131.38 84.4468 131.592 84.6853 131.74 84.9629C131.899 85.2793 131.977 85.6302 131.967 85.9842H130.494C130.487 85.8052 130.442 85.6298 130.361 85.4703C130.292 85.3377 130.19 85.2256 130.065 85.145C129.934 85.0638 129.79 85.0075 129.639 84.9791C129.469 84.9459 129.297 84.9295 129.125 84.9304C129.001 84.9303 128.878 84.9434 128.757 84.9694C128.641 84.9948 128.531 85.0411 128.432 85.106C128.332 85.1695 128.248 85.2538 128.185 85.3532C128.117 85.4623 128.083 85.5891 128.087 85.7175C128.083 85.831 128.11 85.9436 128.165 86.0427C128.242 86.1474 128.349 86.2267 128.471 86.2704C128.676 86.3575 128.886 86.4293 129.102 86.4851C129.369 86.5599 129.72 86.6509 130.152 86.7615L130.478 86.8428C130.624 86.8824 130.767 86.9313 130.907 86.9892C131.066 87.0534 131.219 87.1329 131.362 87.2266C131.517 87.3267 131.659 87.447 131.782 87.5844C131.912 87.736 132.015 87.9087 132.088 88.095C132.166 88.314 132.205 88.5454 132.202 88.7781C132.205 89.0827 132.143 89.3845 132.019 89.6628C131.893 89.9362 131.705 90.1767 131.47 90.3653C131.202 90.5763 130.896 90.7342 130.569 90.8304C130.165 90.9502 129.744 91.0072 129.323 90.9995C128.947 91.0006 128.573 90.9514 128.211 90.8532C127.87 90.7662 127.548 90.615 127.264 90.4076C126.972 90.1945 126.737 89.9119 126.582 89.5854C126.426 89.2588 126.354 88.8986 126.373 88.5374L127.846 88.5406Z" fill="#43659A"/>
<path d="M85.7559 30.5254C86.0378 31.9926 86.8221 33.3158 87.974 34.2674C89.1258 35.219 90.5733 35.7396 92.0674 35.7396C93.5614 35.7396 95.0089 35.219 96.1607 34.2674C97.3126 33.3158 98.0969 31.9926 98.3789 30.5254H85.7559Z" fill="#DEA95A"/>
<path d="M40.1256 35.745C41.618 35.7451 43.0639 35.2258 44.2152 34.2763C45.3665 33.3267 46.1515 32.0061 46.4355 30.541H33.8125C34.0972 32.0064 34.8828 33.3271 36.0347 34.2766C37.1865 35.2261 38.6329 35.7452 40.1256 35.745Z" fill="#DEA95A"/>
<path d="M58.8434 36.0181H69.2221V51.7961L73.1414 48.9501V6.82031H74.7221V47.7239H74.8295L84.0568 41.0368V12.6423C84.9173 13.1476 85.7088 13.762 86.4117 14.4702C87.9501 16.0087 89.5211 16.8446 91.0953 16.9714L85.9108 28.8138C85.8936 28.8542 85.8867 28.8983 85.8907 28.942C85.8947 28.9857 85.9094 29.0278 85.9335 29.0645C85.9576 29.1012 85.9905 29.1313 86.029 29.1523C86.0676 29.1732 86.1108 29.1843 86.1547 29.1846H97.9743C98.0185 29.1852 98.0622 29.1746 98.1012 29.1539C98.1403 29.1331 98.1735 29.1029 98.1978 29.066C98.2221 29.029 98.2367 28.9866 98.2403 28.9425C98.2438 28.8984 98.2363 28.8542 98.2183 28.8138L92.9557 16.7795C94.3153 16.3407 95.4993 15.4793 96.3351 14.3206C96.4821 14.105 96.5375 13.8397 96.489 13.5832C96.4405 13.3267 96.2921 13.1 96.0765 12.9529C95.8608 12.8058 95.5956 12.7505 95.3391 12.799C95.0826 12.8474 94.8559 12.9958 94.7088 13.2115C94.7088 13.2278 93.5672 14.8378 91.8141 14.9971C90.5554 15.1142 89.2121 14.4637 87.8135 13.0684C86.7284 11.9702 85.4592 11.0708 84.0633 10.4111V5.44775C82.4845 3.90433 80.6514 2.64452 78.6447 1.72362C74.3055 -0.256682 69.3823 -0.541395 64.8438 0.925499C60.3053 2.39239 56.48 5.50468 54.1207 9.65C53.6156 9.53461 53.1024 9.45849 52.5855 9.42232C49.3883 9.20115 46.2106 10.4989 43.6379 13.0716C42.2426 14.467 40.896 15.1175 39.6373 15.0004C37.8972 14.8443 36.7718 13.2538 36.7426 13.2148C36.5955 12.9991 36.3688 12.8507 36.1123 12.8022C35.8558 12.7537 35.5906 12.8091 35.3749 12.9562C35.1592 13.1033 35.0108 13.33 34.9624 13.5865C34.9139 13.843 34.9692 14.1082 35.1163 14.3239C35.1781 14.4182 36.6548 16.5616 39.182 16.9259L33.9779 28.8073C33.9599 28.8477 33.9524 28.8919 33.9559 28.936C33.9595 28.9801 33.9741 29.0225 33.9984 29.0595C34.0227 29.0964 34.0559 29.1266 34.095 29.1473C34.134 29.1681 34.1777 29.1786 34.2219 29.1781H46.0415C46.0854 29.1778 46.1286 29.1667 46.1672 29.1458C46.2057 29.1248 46.2386 29.0947 46.2627 29.058C46.2868 29.0213 46.3015 28.9792 46.3055 28.9355C46.3095 28.8918 46.3026 28.8477 46.2854 28.8073L41.0554 16.8576C42.3922 16.5713 43.7257 15.7712 45.0332 14.4637C47.1961 12.2975 49.8307 11.2112 52.4489 11.3868C52.7018 11.4029 52.9537 11.4322 53.2035 11.4747C52.1617 13.8757 51.6237 16.465 51.6228 19.0823C51.6228 19.6092 51.6456 20.1296 51.6879 20.6435V28.9146H48.1329V36.0116H51.6813V40.3375L58.8369 45.5415L58.8434 36.0181ZM92.0678 18.1976L96.2733 27.8023H87.8623L92.0678 18.1976ZM78.6382 11.4389V6.75851H80.1376V40.6269H78.6382V11.4389ZM58.8434 18.5944C58.8329 17.0207 59.1508 15.462 59.7769 14.0181C60.9941 11.1785 63.2568 8.91572 66.0965 7.69849C67.0912 7.26409 68.1443 6.97808 69.2221 6.84958V28.9276H58.8434V18.5944ZM44.3274 27.8088H35.9197L40.1252 18.2041L44.3274 27.8088Z" fill="#DEA95A"/>
<path d="M80.1381 6.75488H78.6387V6.80367H80.1381V6.75488Z" fill="#D7BB72"/>
</svg>
